<?xml version="1.0" encoding="utf-8"?><svg xmlns="http://www.w3.org/2000/svg" xmlns:xlink="http://www.w3.org/1999/xlink"><symbol fill="none" viewBox="-46.87 -46.87 243.75 122.75" id="4etoiles" xmlns="http://www.w3.org/2000/svg"><path d="M15 1.13l4.187 8.483.116.236.26.038 9.363 1.36-6.775 6.604-.188.183.044.26 1.6 9.324-8.374-4.402-.233-.123-.232.123-8.374 4.402 1.599-9.325.044-.259-.188-.183-6.775-6.603 9.363-1.361.26-.038.116-.236L15 1.13zM45 1.13l4.187 8.483.116.236.26.038 9.362 1.36-6.774 6.604-.188.183.044.26 1.6 9.324-8.374-4.402-.233-.123-.232.123-8.374 4.402 1.599-9.325.044-.259-.188-.183-6.774-6.603 9.362-1.361.26-.038.116-.236L45 1.13zM75 1.13l4.187 8.483.116.236.26.038 9.362 1.36-6.774 6.604-.188.183.044.26 1.6 9.324-8.374-4.402-.233-.123-.232.123-8.374 4.402 1.599-9.325.044-.259-.188-.183-6.775-6.603 9.363-1.361.26-.038.116-.236L75 1.13zM105 1.13l4.187 8.483.116.236.26.038 9.363 1.36-6.775 6.604-.188.183.044.26 1.599 9.324-8.373-4.402-.233-.123-.232.123-8.374 4.402 1.599-9.325.044-.259-.188-.183-6.775-6.603 9.363-1.361.26-.038.116-.236L105 1.13z" fill="#F9D12B" stroke="#000"/><path d="M135 1.13l4.187 8.483.116.236.26.038 9.363 1.36-6.775 6.604-.188.183.044.26 1.599 9.324-8.373-4.402-.233-.123-.232.123-8.374 4.402 1.599-9.325.044-.259-.188-.183-6.774-6.603 9.362-1.361.26-.038.116-.236L135 1.13z" fill="#F4F4F4" stroke="#000"/></symbol><symbol viewBox="-39.2 -39.2 203.82 156.78" id="amex" xmlns="http://www.w3.org/2000/svg"><defs><style>.bcls-1{fill:#f9f9f9}.bcls-2{fill:#fff}.bcls-3{fill:#0079a7}</style></defs><g id="bCalque_2" data-name="Calque 2"><g id="bLayer_1" data-name="Layer 1"><rect class="bcls-1" width="125.43" height="78.39" rx="4.18"/><path class="bcls-2" d="M38.92 37.37v-1.25l-.6 1.25h-5.2L32.47 36v1.34h-9.7l-1.15-2.71h-1.95l-1.21 2.71h-5v-8.16l3.7-8.35h7.06l1 2.36v-2.34h8.64l1.9 4 1.86-4h27.22a4.66 4.66 0 012.37.64v-.64h6.87v.9a5.62 5.62 0 013.06-.9h12.13l1.06 2.4v-2.4h7.77l1.41 2.4v-2.4h7.43v16.54h-7.63l-1.79-2.89v2.87H88l-1.33-3h-1.83l-1.25 3h-5.74a7.51 7.51 0 01-3.75-1.17v1.17H62.67v-3.86c0-.56-.43-.52-.43-.52h-.41v4.38zM33.22 41h15l2.17 2.45L52.61 41h11.55a5.21 5.21 0 012.11.57V41h10.28a5.29 5.29 0 012.41.65V41h13.21v.6a4.49 4.49 0 012.21-.6H103v.6a5.25 5.25 0 012.23-.6H112v15.6a3.73 3.73 0 01-2.73 1h-8.91v-.5a4.56 4.56 0 01-2.14.5h-23.7v-4c0-.39-.17-.47-.52-.47h-.33v4.51h-7.4v-4.55a5 5 0 01-2.19.44h-2.66v4H52.3L50.23 55 48 57.57H33.22z"/><path class="bcls-3" d="M80.54 43.45h9.43v2.53h-6.54v2.2h6.35v2.22h-6.35v2.32h6.54v2.47h-9.43V43.45zM108.17 48c3.54.18 3.84 1.95 3.84 3.84a3.43 3.43 0 01-3.7 3.38h-6v-2.5H107c.8 0 2 0 2-1.12 0-.54-.21-.88-1.06-1-.38-.06-1.78-.13-2-.14-3.2-.08-3.94-1.67-3.94-3.61a3.24 3.24 0 013.43-3.41h6.06V46H107c-1 0-2.1-.12-2.1 1 0 .72.54.87 1.22.93zM97.32 48c3.54.18 3.84 1.95 3.84 3.84a3.43 3.43 0 01-3.7 3.38h-6v-2.5h4.71c.8 0 2 0 2-1.12 0-.54-.21-.88-1.06-1-.38-.06-1.79-.13-2-.14-3.2-.08-3.94-1.67-3.94-3.61a3.24 3.24 0 013.43-3.41h6.06V46h-4.48c-1 0-2.1-.12-2.1 1 0 .72.54.87 1.22.93zM63.14 43.47H53l-3.3 3.65-3.19-3.67H35.17v11.74h11l3.46-3.88 3.37 3.9h5.53v-4h3.88c1.49 0 4.22 0 4.22-4.17a3.26 3.26 0 00-3.49-3.57zm-18.49 9.25H38V50.4h6.35v-2.22H38V46h7l2.8 3.2zm11 1.37l-4.14-4.9 4.14-4.59zm6.5-5.28h-3.57V46h3.6a1.42 1.42 0 110 2.82zM77.06 49.87a3.21 3.21 0 002-3.25c0-2.52-2-3.15-3.46-3.15h-7.5v11.74H71v-4.14h3.77c1 0 1.39 1 1.41 2l.08 2.15h2.81L79 52.8c0-1.89-.57-2.8-1.94-2.93zm-2.48-1.22H71V46h3.6a1.38 1.38 0 011.58 1.35c-.01.78-.43 1.3-1.6 1.3zM69.26 23.18h2.88v11.75h-2.88zM45.66 23.19h9.42v2.53h-6.53v2.2h6.35v2.23h-6.35v2.32h6.53v2.46h-9.42V23.19zM65.76 29.59a3.22 3.22 0 002-3.25c0-2.52-2-3.15-3.46-3.15h-7.5v11.74h2.89v-4.14h3.77c1 0 1.39 1 1.41 2l.08 2.15h2.81l-.11-2.41c-.01-1.9-.53-2.79-1.89-2.94zm-2.49-1.22h-3.59v-2.66h3.6a1.38 1.38 0 011.58 1.35c0 .79-.41 1.31-1.59 1.31zM39 23.19l-3.53 7.88L32 23.19h-4.57V34.5l-5-11.31h-3.84l-5.14 11.74h3l1.12-2.62h5.76l1.14 2.62h5.8v-8.71l3.85 8.71h2.63l3.94-8.57v8.57h2.88V23.19zm-20.3 6.59l1.72-4.1 1.79 4.1zM101.89 23.19v8.13L97 23.19h-4.23v11l-4.92-11H84l-4 9.1h-1.85c-.69-.15-1.78-.64-1.79-2.71v-.85c0-2.75 1.49-3 3.41-3h1.78v-2.54h-3.7c-1.31 0-4.16 1-4.25 5.82-.07 3.25 1.35 5.93 4.54 5.93h3.8l1.13-2.62h5.75L90 34.94h5.69v-8.6l5.19 8.6h3.93V23.19zm-17.71 6.6l1.72-4.11 1.81 4.11z"/></g></g></symbol><symbol fill="none" viewBox="-10 -10 44 45" id="compte" xmlns="http://www.w3.org/2000/svg"><path d="M24 12.112C24 5.462 18.617.051 12 .051S0 5.46 0 12.112c0 3.513 1.503 6.679 3.895 8.885l-.011.01.389.33c.025.021.053.039.078.06a12.035 12.035 0 00.853.647 12.222 12.222 0 001.697.982l.062.028a11.854 11.854 0 003.941 1.066l.119.01c.322.026.647.043.977.043.327 0 .65-.017.97-.043l.121-.01c.321-.029.638-.071.95-.125l.082-.015a11.848 11.848 0 002.862-.901l.1-.046a12.08 12.08 0 001.671-.96 11.995 11.995 0 00.802-.603c.04-.032.084-.06.124-.095l.4-.335-.012-.01A12.057 12.057 0 0024 12.112zm-23.127 0C.873 5.945 5.864.928 12 .928c6.136 0 11.127 5.017 11.127 11.184 0 3.323-1.45 6.31-3.748 8.36a3.257 3.257 0 00-.39-.235l-3.694-1.856a.973.973 0 01-.538-.874V16.21c.086-.106.176-.227.27-.359a8.954 8.954 0 001.141-2.247c.553-.263.91-.817.91-1.442v-1.555a1.6 1.6 0 00-.387-1.039V7.521c.023-.227.103-1.512-.822-2.572-.804-.922-2.106-1.39-3.869-1.39-1.763 0-3.065.468-3.87 1.39-.924 1.06-.844 2.344-.82 2.572v2.047c-.249.29-.388.659-.388 1.039v1.555c0 .482.216.933.585 1.237a8.257 8.257 0 001.35 2.802v1.27a.979.979 0 01-.508.858L4.9 20.22c-.11.06-.219.13-.328.208a11.182 11.182 0 01-3.698-8.317zm17.655 9.049c-.153.111-.308.22-.466.322a10.964 10.964 0 01-.848.505l-.142.073c-.491.253-1 .47-1.522.648l-.055.018c-.274.092-.55.173-.831.243h-.003c-.282.07-.569.129-.857.176l-.023.005c-.271.044-.544.076-.818.1a10.774 10.774 0 01-.963.045c-.277 0-.552-.014-.827-.034l-.142-.011a11.218 11.218 0 01-.825-.102l-.037-.007a11.036 11.036 0 01-1.697-.426l-.051-.017a11.274 11.274 0 01-.813-.313l-.006-.003c-.252-.109-.5-.23-.744-.358-.032-.016-.064-.032-.095-.05a11.175 11.175 0 01-.846-.506c-.198-.13-.394-.266-.584-.409l-.058-.046.042-.023 3.45-1.892c.593-.325.962-.95.962-1.629v-1.58l-.1-.122c-.01-.01-.954-1.164-1.31-2.726l-.04-.173-.149-.097a.728.728 0 01-.335-.61v-1.556c0-.204.086-.393.243-.536l.144-.13V7.495l-.004-.057c-.001-.01-.13-1.065.609-1.912.631-.723 1.712-1.09 3.213-1.09 1.495 0 2.573.364 3.206 1.081.738.838.617 1.913.616 1.922l-.004 2.5.144.13a.719.719 0 01.243.537v1.555a.732.732 0 01-.515.69l-.217.068-.07.217a8.13 8.13 0 01-1.089 2.207 5.394 5.394 0 01-.321.416l-.108.124v1.623c0 .707.39 1.342 1.02 1.658l3.695 1.857.07.036c-.047.036-.095.069-.142.103z" fill="#fff"/></symbol><symbol fill="none" viewBox="-10 -10 44 45" id="compteMobile" xmlns="http://www.w3.org/2000/svg"><path d="M24 12.061C24 5.411 18.617 0 12 0S0 5.41 0 12.061c0 3.513 1.503 6.679 3.895 8.885l-.011.01.389.33c.025.021.053.039.078.06.207.172.421.336.64.494a12.222 12.222 0 001.91 1.135l.062.028a11.854 11.854 0 003.941 1.066l.119.01c.322.026.647.043.977.043.327 0 .65-.017.97-.043l.121-.009c.321-.03.638-.072.95-.126l.082-.015a11.848 11.848 0 002.862-.901l.1-.046a12.08 12.08 0 001.671-.96 11.995 11.995 0 00.802-.603c.04-.032.084-.06.124-.095l.4-.335-.012-.01A12.057 12.057 0 0024 12.061zm-23.127 0C.873 5.894 5.864.877 12 .877c6.136 0 11.127 5.017 11.127 11.184 0 3.323-1.45 6.31-3.748 8.36a3.27 3.27 0 00-.39-.235l-3.694-1.856a.973.973 0 01-.538-.874v-1.297c.086-.106.176-.226.27-.358a8.954 8.954 0 001.141-2.247c.553-.264.91-.818.91-1.443v-1.555a1.6 1.6 0 00-.387-1.039V7.47c.023-.227.103-1.512-.822-2.571-.804-.923-2.106-1.39-3.869-1.39-1.763 0-3.065.467-3.87 1.39-.924 1.059-.844 2.343-.82 2.571v2.047c-.249.29-.388.659-.388 1.039v1.555c0 .482.216.933.585 1.237a8.257 8.257 0 001.35 2.802v1.27a.979.979 0 01-.508.858L4.9 20.17c-.11.06-.219.13-.328.208a11.182 11.182 0 01-3.698-8.317zm17.655 9.049c-.153.111-.308.22-.466.322a10.964 10.964 0 01-.848.505l-.142.073c-.491.253-1 .471-1.522.648l-.055.019c-.274.09-.55.172-.831.242h-.003c-.282.07-.569.129-.857.177-.008 0-.015.003-.023.004-.271.044-.544.076-.818.1a10.774 10.774 0 01-.963.045c-.277 0-.552-.014-.827-.034l-.142-.011a11.218 11.218 0 01-.825-.102l-.037-.007a11.036 11.036 0 01-1.697-.426l-.051-.017a11.274 11.274 0 01-.813-.313l-.006-.003c-.252-.109-.5-.23-.744-.358-.032-.016-.064-.032-.095-.05a11.23 11.23 0 01-.846-.506c-.198-.13-.394-.265-.584-.409l-.058-.046.042-.023 3.45-1.892c.593-.325.962-.95.962-1.629v-1.58l-.1-.121c-.01-.011-.954-1.165-1.31-2.727l-.04-.173-.149-.097a.728.728 0 01-.335-.61v-1.556c0-.204.086-.393.243-.536l.144-.13V7.444l-.004-.057c-.001-.01-.13-1.065.609-1.912.631-.723 1.712-1.09 3.213-1.09 1.495 0 2.573.364 3.206 1.081.738.839.617 1.913.616 1.922l-.004 2.5.144.13a.719.719 0 01.243.537v1.555a.732.732 0 01-.515.69l-.217.068-.07.217a8.13 8.13 0 01-1.089 2.207 5.371 5.371 0 01-.321.416l-.108.124v1.623c0 .707.39 1.343 1.02 1.658l3.695 1.857.07.036c-.047.036-.095.069-.142.103z" fill="#000"/></symbol><symbol viewBox="-16.25 -16.25 84.5 84.5" id="confirmation" xmlns="http://www.w3.org/2000/svg"><path d="M26 0C11.664 0 0 11.663 0 26s11.664 26 26 26 26-11.663 26-26S40.336 0 26 0zm0 50C12.767 50 2 39.233 2 26S12.767 2 26 2s24 10.767 24 24-10.767 24-24 24z"/><path d="M38.252 15.336l-15.369 17.29-9.259-7.407a1 1 0 00-1.249 1.562l10 8a.999.999 0 001.373-.117l16-18a1 1 0 10-1.496-1.328z"/></symbol><symbol fill="none" viewBox="-10 -10 44 45" id="connexion" xmlns="http://www.w3.org/2000/svg"><path d="M17.143.05c-3.781 0-6.857 3.093-6.857 6.893a6.88 6.88 0 001.158 3.827L.126 22.145a.432.432 0 00.303.736c.11 0 .22-.042.303-.126l1.84-1.85 3.125 3.142a.426.426 0 00.606 0 .432.432 0 000-.61l-3.125-3.14 1.536-1.545 2.269 2.28a.426.426 0 00.606 0 .432.432 0 000-.61l-2.269-2.28 1.537-1.544 3.126 3.141a.427.427 0 00.606 0 .432.432 0 000-.609L7.463 15.99l4.51-4.533a6.824 6.824 0 005.17 2.379c3.78 0 6.857-3.092 6.857-6.892 0-3.8-3.076-6.892-6.857-6.892zm0 12.923c-3.309 0-6-2.705-6-6.03s2.691-6.03 6-6.03c3.308 0 6 2.705 6 6.03s-2.692 6.03-6 6.03z" fill="#fff"/></symbol><symbol fill="none" viewBox="-10 -10 44 45" id="connexionMobile" xmlns="http://www.w3.org/2000/svg"><path d="M17.143 0c-3.781 0-6.857 3.092-6.857 6.892a6.88 6.88 0 001.158 3.827L.126 22.095a.432.432 0 00.303.735c.11 0 .22-.042.303-.126l1.84-1.85 3.125 3.142a.426.426 0 00.606 0 .432.432 0 000-.61l-3.125-3.14L4.714 18.7l2.269 2.28a.426.426 0 00.606 0 .432.432 0 000-.61l-2.269-2.28 1.537-1.544 3.126 3.141a.426.426 0 00.606 0 .432.432 0 000-.609l-3.126-3.141 4.51-4.533a6.824 6.824 0 005.17 2.38c3.78 0 6.857-3.093 6.857-6.893S20.924 0 17.143 0zm0 12.923c-3.309 0-6-2.706-6-6.03 0-3.326 2.691-6.031 6-6.031 3.308 0 6 2.705 6 6.03s-2.692 6.03-6 6.03z" fill="#000"/></symbol><symbol fill="none" viewBox="-17.19 -17.19 87.38 89.38" id="deconexionMobile" xmlns="http://www.w3.org/2000/svg"><path d="M52.924 24.382a1.001 1.001 0 00-.217-1.091L40.708 11.293a.999.999 0 10-1.414 1.414L49.587 23H28.001a1 1 0 100 2h21.586L39.294 35.293a.999.999 0 101.414 1.414l11.999-11.999c.092-.092.166-.203.217-.326z" fill="#000"/><path d="M35.001 29a1 1 0 00-1 1v16h-10V8a1 1 0 00-.697-.953L7.442 2h26.559v16a1 1 0 102 0V1a1 1 0 00-1-1h-34C.969 0 .941.015.91.018.854.023.805.036.752.05a.972.972 0 00-.259.108C.467.174.436.174.411.192.38.215.356.244.328.269.311.285.293.299.277.316a1.04 1.04 0 00-.184.273c-.009.02-.014.04-.022.06A.998.998 0 00.001 1v46c0 .125.029.243.072.355.014.037.035.068.053.103a.962.962 0 00.415.416c.037.02.071.041.111.056.017.006.03.018.047.024l22 7A1.002 1.002 0 0024.001 54v-6h11a1 1 0 001-1V30a1 1 0 00-1-1zm-13 23.633l-20-6.364V2.367l20 6.364v43.902z" fill="#000"/></symbol><symbol fill="none" viewBox="-17.19 -17.19 87.38 89.38" id="deconnexion" xmlns="http://www.w3.org/2000/svg"><path d="M52.924 24.382a1.001 1.001 0 00-.217-1.091L40.708 11.293a.999.999 0 10-1.414 1.414L49.587 23H28.001a1 1 0 100 2h21.586L39.294 35.293a.999.999 0 101.414 1.414l11.999-11.999c.092-.092.166-.203.217-.326z" fill="#fff"/><path d="M35.001 29a1 1 0 00-1 1v16h-10V8a1 1 0 00-.697-.953L7.442 2h26.559v16a1 1 0 102 0V1a1 1 0 00-1-1h-34C.969 0 .941.015.91.018.854.023.805.036.752.05a.972.972 0 00-.259.108C.467.174.436.174.411.192.38.215.356.244.328.269.311.285.293.299.277.316a1.04 1.04 0 00-.184.273c-.009.02-.014.04-.022.06A.998.998 0 00.001 1v46c0 .125.029.243.072.355.014.037.035.068.053.103a.962.962 0 00.415.416c.037.02.071.041.111.056.017.006.03.018.047.024l22 7A1.002 1.002 0 0024.001 54v-6h11a1 1 0 001-1V30a1 1 0 00-1-1zm-13 23.633l-20-6.364V2.367l20 6.364v43.902z" fill="#fff"/></symbol><symbol viewBox="-160 -160 832 832" id="email" xmlns="http://www.w3.org/2000/svg"><path d="M486.4 59.733H25.6c-14.138 0-25.6 11.461-25.6 25.6v341.333c0 14.138 11.461 25.6 25.6 25.6h460.8c14.138 0 25.6-11.461 25.6-25.6V85.333c0-14.138-11.461-25.6-25.6-25.6zm8.533 366.934a8.533 8.533 0 01-8.533 8.533H25.6a8.533 8.533 0 01-8.533-8.533V85.333A8.533 8.533 0 0125.6 76.8h460.8a8.533 8.533 0 018.533 8.533v341.334z"/><path d="M470.076 93.898a8.53 8.53 0 00-6.229 1.966L266.982 261.239a17.068 17.068 0 01-21.965 0L48.154 95.863a8.535 8.535 0 00-10.974 13.073l196.864 165.367c12.688 10.683 31.224 10.683 43.913 0L474.82 108.937a8.532 8.532 0 001.049-12.023 8.524 8.524 0 00-5.793-3.016zM164.124 273.13a8.535 8.535 0 00-8.229 2.65l-119.467 128a8.532 8.532 0 1012.476 11.639l119.467-128a8.532 8.532 0 00-4.247-14.289zM356.105 275.78a8.534 8.534 0 10-12.476 11.639l119.467 128a8.533 8.533 0 0012.476-11.64L356.105 275.78z"/></symbol><symbol fill="none" viewBox="-15.62 -15.62 56.25 81.25" id="facebook" xmlns="http://www.w3.org/2000/svg"><path d="M15.625 17.188v-6.25c0-1.726 1.4-3.126 3.125-3.126h3.125V0h-6.25A9.374 9.374 0 006.25 9.375v7.813H0V25h6.25v25h9.375V25h6.25L25 17.187h-9.375z" fill="#333"/></symbol><symbol fill="none" viewBox="-10.62 -10.62 55.25 55.25" id="livraison" xmlns="http://www.w3.org/2000/svg"><path d="M31.62 15.364l-.88-3.522a.533.533 0 00.42-.52v-.568a2.238 2.238 0 00-2.235-2.236h-4.01V7.346c0-.606-.494-1.1-1.1-1.1H3.371c-.607 0-1.1.494-1.1 1.1V17a.532.532 0 101.064 0V7.346c0-.02.016-.035.036-.035h20.442c.02 0 .036.016.036.035V17a.532.532 0 101.064 0v-.603h6.283c.773 0 1.43.507 1.655 1.206h-1.656a.532.532 0 00-.532.533v1.135c0 .92.748 1.668 1.668 1.668h.603v2.343h-1.392a3.377 3.377 0 00-3.186-2.272c-1.474 0-2.73.951-3.186 2.272h-.257v-4.01a.532.532 0 00-1.065 0v4.01H12.804a3.377 3.377 0 00-3.186-2.272c-1.474 0-2.73.951-3.186 2.272h-3.06a.035.035 0 01-.036-.036v-1.171h2.307a.532.532 0 100-1.065H.533a.532.532 0 000 1.065H2.27v1.171c0 .607.494 1.1 1.1 1.1h2.876v.036a3.375 3.375 0 003.371 3.371 3.375 3.375 0 003.371-3.371v-.036h11.997v.036a3.375 3.375 0 003.37 3.371 3.375 3.375 0 003.372-3.371v-.036h1.74a.532.532 0 00.532-.532v-5.678a2.808 2.808 0 00-2.38-2.772zm-6.706-5.782h4.01c.647 0 1.172.526 1.172 1.172v.035h-5.182V9.582zm0 5.75v-3.478h4.73l.87 3.478h-5.6zM9.618 26.689a2.31 2.31 0 01-2.307-2.307 2.31 2.31 0 012.307-2.307 2.31 2.31 0 012.307 2.307 2.31 2.31 0 01-2.307 2.307zm18.739 0a2.31 2.31 0 01-2.307-2.307 2.31 2.31 0 012.307-2.307 2.31 2.31 0 012.307 2.307 2.31 2.31 0 01-2.307 2.307zm4.578-6.814h-.603a.604.604 0 01-.603-.604v-.603h1.206v1.207z" fill="#000"/><path d="M9.618 23.282a1.101 1.101 0 000 2.2 1.101 1.101 0 000-2.2zM28.357 23.282c-.607 0-1.1.493-1.1 1.1a1.101 1.101 0 002.2 0c0-.607-.493-1.1-1.1-1.1zM22.111 21.01h-7.95a.532.532 0 000 1.065h7.95a.532.532 0 000-1.065zM8.482 18.739H1.668a.532.532 0 100 1.065h6.814a.532.532 0 000-1.065zM18.512 11.513a.532.532 0 00-.753 0l-4.734 4.734-2.463-2.463a.532.532 0 10-.753.753l2.84 2.84a.53.53 0 00.752 0l5.11-5.111a.532.532 0 00.001-.753z" fill="#000"/></symbol><symbol viewBox="-39.2 -39.2 203.82 156.78" id="mastercard" xmlns="http://www.w3.org/2000/svg"><rect fill="#f9f9f9" height="78.39" rx="4.18" width="125.43"/><path d="M77.77 61.7l1.16-.03 1.15-.08 1.12-.15 1.11-.2 1.09-.25 1.07-.3 1.05-.36 1.02-.4 1-.45.98-.5.94-.54.92-.59.88-.63.85-.67.82-.7.78-.75.75-.79.71-.82.66-.84.63-.89.59-.91.54-.95.5-.97.45-1 .4-1.02.36-1.05.31-1.07.25-1.09.19-1.11.15-1.13.08-1.14.03-1.16-.03-1.16-.08-1.14-.15-1.12-.19-1.1-.25-1.09-.31-1.06-.36-1.05-.4-1.01-.45-1-.5-.97-.54-.93-.59-.92-.63-.88-.66-.84-.71-.82-.75-.79-.78-.74-.82-.71-.85-.66-.88-.63-.92-.59-.94-.54-.98-.49-1-.46-1.02-.4-1.05-.36-1.07-.3-1.09-.25-1.11-.2-1.12-.14-1.15-.08-1.16-.04-1.16.04-1.14.08-1.13.14-1.11.2-1.08.25-1.07.3-1.04.36-1.02.4-1 .46-.96.49-.94.54-.92.59-.87.63-.86.66-.81.71-.78.74-.74.79-.71.82-.67.84-.62.88-.58.92-.54.93-.5.97-.45 1-.41 1.01-.34 1.05-.31 1.06-.25 1.09-.2 1.1-.14 1.12-.08 1.14-.03 1.16.03 1.16.08 1.14.14 1.13.2 1.11.25 1.09.31 1.07.34 1.05.41 1.02.45 1 .5.97.54.95.58.91.62.89.67.84.71.82.74.79.78.75.81.7.86.67.87.63.92.59.94.54.96.5 1 .45 1.02.4 1.04.36 1.07.3 1.08.25 1.11.2 1.13.15 1.14.08z" fill="#fbb231" fill-rule="evenodd"/><path d="M47.66 61.7l1.15-.03 1.15-.08 1.13-.15 1.1-.2 1.09-.25 1.07-.3 1.04-.36 1.02-.4 1-.45.96-.5.94-.54.91-.59.89-.63.85-.67.81-.7.78-.75.74-.79.71-.82.67-.84.62-.89.59-.91.53-.95.5-.97.45-1 .41-1.02.34-1.05.31-1.07.25-1.09.19-1.11.15-1.13.08-1.14.03-1.16-.03-1.16-.08-1.14-.15-1.12-.19-1.1-.25-1.09-.31-1.06-.34-1.05-.41-1.01-.45-1-.5-.97-.53-.93-.59-.92-.62-.88-.67-.84-.71-.82-.74-.79-.78-.74-.81-.71-.85-.66-.89-.63-.91-.59-.94-.54-.96-.49-1-.46-1.02-.4-1.04-.36-1.07-.3-1.09-.25-1.1-.2-1.13-.14-1.15-.08-1.15-.04-1.16.04-1.15.08-1.12.14-1.11.2-1.09.25-1.07.3-1.05.36-1.02.4-1 .46-.98.49-.94.54-.92.59-.88.63-.85.66-.82.71-.78.74-.75.79-.7.82-.67.84-.63.88-.59.92-.54.93-.5.97-.45 1-.41 1.01-.35 1.05-.31 1.06-.25 1.09-.19 1.1-.15 1.12-.08 1.14-.03 1.16.03 1.16.08 1.14.15 1.13.19 1.11.25 1.09.31 1.07.35 1.05.41 1.02.45 1 .5.97.54.95.59.91.63.89.67.84.7.82.75.79.78.75.82.7.85.67.88.63.92.59.94.54.98.5 1 .45 1.02.4 1.05.36 1.07.3 1.09.25 1.11.2 1.12.15 1.15.08z" fill="#ec1c2e" fill-rule="evenodd"/><path d="M60.08 25.33h11.96V24.1H61.11zM58.29 28.04h13.75v-1.22H59.01zM56.95 30.75h15.09v-1.22H57.48zM56.03 33.47h16.01v-1.22H56.41zM56.57 46.6h15.5v-1.22H56.19zM57.71 49.32h14.36V48.1H57.14zM59.32 52.03h12.75v-1.22H58.56zM61.54 54.75h10.53v-1.23h-11.6zM55.5 36.18h16.54v-1.22H55.73zM65.58 43.89h6.3v-1.22h-6.07zM66.08 41.18h5.8v-1.23h-5.57zM55.08 39.95h1.64v1.23h-1.56z" fill="#fbb231" fill-rule="evenodd"/><path d="M52.02 38.47l-.11-.01-.1-.01-.1-.01-.1-.02-.09-.01-.1-.02-.1-.02-.11-.01-.1-.02h-.12l-.14-.01-.14-.01h-.16l-.18.01-.2.01-.22.02-.15.02-.14.03-.13.04-.11.04-.11.06-.1.06-.08.08-.07.06-.04.09-.04.08-.01.09v.09l.02.1.03.1.06.1.08.1.15.14.18.12.21.09.23.09.24.07.25.09.26.09.24.1.23.13.21.16.19.19.16.23.12.29.08.34.03.41-.03.48-.06.36-.09.31-.12.29-.15.25-.18.22-.19.18-.22.17-.23.15-.25.11-.25.1-.25.07-.27.07-.26.04-.25.02-.25.02-.23.01h-.33l-.3-.01h-.27l-.25-.01-.23-.01-.2-.01-.18-.02-.18-.02-.16-.01-.14-.03-.15-.03-.13-.04-.12-.03-.13-.04-.12-.05-.13-.04.34-1.68.07.02.09.02.1.03.13.03.14.03.15.03.17.04.18.03.19.03.2.03.2.02.21.02.22.01.23.01h.21l.22-.01.22-.04.18-.07.14-.08.1-.1.08-.11.06-.12.04-.12.03-.12.01-.22-.07-.19-.13-.15-.19-.13-.22-.11-.27-.12-.29-.1-.3-.12-.3-.14-.29-.16-.27-.2-.24-.23-.19-.29-.14-.34-.07-.41.01-.49.04-.29.05-.29.08-.25.09-.25.12-.22.14-.2.16-.19.19-.17.22-.14.24-.12.27-.12.31-.08.34-.07.37-.05.41-.03.45-.01h.28l.26.01.23.01h.22l.19.02.17.01.15.02.14.01.13.02.1.02.1.02.09.01.08.02h.07l.07.02.06.01z" fill="#fff" fill-rule="evenodd"/><path d="M52.02 38.47l-.11-.01-.1-.01-.1-.01-.1-.02-.09-.01-.1-.02-.1-.02-.11-.01-.1-.02h-.12l-.14-.01-.14-.01h-.16l-.18.01-.2.01-.22.02-.15.02-.14.03-.13.04-.11.04-.11.06-.1.06-.08.08-.07.06-.04.09-.04.08-.01.09v.09l.02.1.03.1.06.1.08.1.15.14.18.12.21.09.23.09.24.07.25.09.26.09.24.1.23.13.21.16.19.19.16.23.12.29.08.34.03.41-.03.48-.06.36-.09.31-.12.29-.15.25-.18.22-.19.18-.22.17-.23.15-.25.11-.25.1-.25.07-.27.07-.26.04-.25.02-.25.02-.23.01h-.33l-.3-.01h-.27l-.25-.01-.23-.01-.2-.01-.18-.02-.18-.02-.16-.01-.14-.03-.15-.03-.13-.04-.12-.03-.13-.04-.12-.05-.13-.04.34-1.68.07.02.09.02.1.03.13.03.14.03.15.03.17.04.18.03.19.03.2.03.2.02.21.02.22.01.23.01h.21l.22-.01.22-.04.18-.07.14-.08.1-.1.08-.11.06-.12.04-.12.03-.12.01-.22-.07-.19-.13-.15-.19-.13-.22-.11-.27-.12-.29-.1-.3-.12-.3-.14-.29-.16-.27-.2-.24-.23-.19-.29-.14-.34-.07-.41.01-.49.04-.29.05-.29.08-.25.09-.25.12-.22.14-.2.16-.19.19-.17.22-.14.24-.12.27-.12.31-.08.34-.07.37-.05.41-.03.45-.01h.28l.26.01.23.01h.22l.19.02.17.01.15.02.14.01.13.02.1.02.1.02.09.01.08.02h.07l.07.02.06.01z" fill="none" stroke="#fff" stroke-miterlimit="2.61" stroke-width=".22"/><path d="M53.82 34.88h2.1l-.31 1.84h1.27l-.28 1.72-1.33-.04-.73 4.23-.01.15.04.13.08.1.09.08.14.06.15.04.17.03.18.02.17-.01.15-.01.14-.03.12-.03.1-.03.07-.02.04-.02h.02l-.27 1.41-.05.04-.06.03-.05.03-.05.03-.05.02-.07.02-.06.03-.07.02-.08.02-.07.02-.09.01-.09.02-.1.01-.12.02-.12.01-.13.02h-.58l-.3-.02-.26-.03-.25-.05-.2-.05-.18-.07-.14-.08-.13-.09-.1-.1-.08-.1-.05-.13-.04-.13-.02-.15-.01-.15v-.17l.03-.18.02-.19z" fill="#fff" fill-rule="evenodd"/><path d="M53.82 34.88h2.1l-.31 1.84h1.27l-.28 1.72-1.33-.04-.73 4.23-.01.15.04.13.08.1.09.08.14.06.15.04.17.03.18.02.17-.01.15-.01.14-.03.12-.03.1-.03.07-.02.04-.02h.02l-.27 1.41-.05.04-.06.03-.05.03-.05.03-.05.02-.07.02-.06.03-.07.02-.08.02-.07.02-.09.01-.09.02-.1.01-.12.02-.12.01-.13.02h-.58l-.3-.02-.26-.03-.25-.05-.2-.05-.18-.07-.14-.08-.13-.09-.1-.1-.08-.1-.05-.13-.04-.13-.02-.15-.01-.15v-.17l.03-.18.02-.19z" fill="none" stroke="#fff" stroke-miterlimit="2.61" stroke-width=".22"/><path d="M58.56 41.3l-.03.12-.01.14.02.15.03.14.05.14.07.14.08.15.09.12.11.13.11.12.12.11.14.09.13.09.16.06.15.06.15.03.2.03.19.02.19.02.2.02.2.01h.2l.2-.01.21-.02.2-.03.21-.04.21-.04.2-.07.22-.08.21-.09.22-.12.22-.13-.3 1.86-.13.06-.12.07-.12.04-.11.05-.12.03-.12.04-.12.03-.13.03-.14.02-.15.01-.16.02-.17.01-.2.01h-.2l-.24.01h-.25l-.37-.01-.38-.04-.38-.05-.38-.09-.37-.11-.36-.15-.34-.19-.32-.22-.3-.26-.25-.31-.22-.35-.19-.4-.12-.45-.09-.51-.02-.56.04-.62.03-.24.04-.28.06-.3.09-.32.11-.33.14-.32.17-.33.21-.32.25-.31.29-.29.34-.25.38-.23.44-.19.49-.14.55-.09.61-.03.3.01.31.03.31.05.31.08.31.11.29.14.28.18.25.21.22.26.19.31.15.34.11.41.06.45.01.52-.05.57-.12.64-.04.46h-5.53l.35-1.49h3.32l.02-.19-.01-.18-.02-.17-.02-.15-.06-.15-.05-.13-.08-.11-.07-.1-.09-.1-.1-.07-.11-.07-.12-.06-.12-.05-.12-.03-.13-.02-.14-.02-.14.01-.14.02-.13.04-.13.04-.13.06-.11.07-.11.08-.1.1-.1.1-.09.11-.08.13-.07.13-.07.13-.05.15-.05.16-.03.16z" fill="none" stroke="#fff" stroke-miterlimit="2.61" stroke-width=".22"/><path d="M76.66 37.17l-.1-.05-.1-.04-.11-.06-.11-.05-.11-.05-.13-.04-.13-.05-.14-.04-.14-.04-.15-.03-.15-.03-.16-.02-.18-.02-.17-.01h-.56l-.2.01-.21.02-.21.04-.21.06-.21.09-.22.1-.21.14-.2.17-.2.19-.19.25-.18.28-.17.33-.16.38-.15.43-.11.48-.05.27-.03.27-.02.27.01.25.02.26.06.24.06.23.09.23.11.21.14.19.16.18.18.16.21.13.23.12.26.1.29.06.09.03.12.02.14.01.15.02.16.02h.37l.19-.02.2-.02.19-.04.19-.05.19-.06.19-.09.18-.1.16-.12.15-.13-.34 2.02-.05.04-.04.05-.06.05-.07.04-.09.06-.1.06-.12.05-.14.05-.18.05-.19.04-.23.03-.27.03-.29.01-.34.01-.39-.01-.43-.02-.35-.04-.35-.07-.34-.12-.35-.15-.34-.18-.32-.23-.3-.26-.28-.31-.25-.34-.21-.38-.19-.42-.13-.47-.09-.51-.03-.53.01-.6.09-.63.06-.31.06-.3.08-.3.08-.28.08-.26.1-.27.1-.25.1-.23.12-.24.11-.22.13-.21.14-.2.13-.19.16-.18.15-.17.16-.16.17-.15.18-.14.18-.13.19-.13.2-.11.21-.1.21-.09.22-.08.24-.08.23-.06.24-.05.26-.05.26-.04.27-.03.28-.01.29-.01.24.01.23.01.23.03.23.03.21.03.21.04.19.04.19.05.17.04.15.05.15.04.12.05.1.04.09.03.07.03.05.01z" fill="#fff" fill-rule="evenodd"/><path d="M76.66 37.17l-.1-.05-.1-.04-.11-.06-.11-.05-.11-.05-.13-.04-.13-.05-.14-.04-.14-.04-.15-.03-.15-.03-.16-.02-.18-.02-.17-.01h-.56l-.2.01-.21.02-.21.04-.21.06-.21.09-.22.1-.21.14-.2.17-.2.19-.19.25-.18.28-.17.33-.16.38-.15.43-.11.48-.05.27-.03.27-.02.27.01.25.02.26.06.24.06.23.09.23.11.21.14.19.16.18.18.16.21.13.23.12.26.1.29.06.09.03.12.02.14.01.15.02.16.02h.37l.19-.02.2-.02.19-.04.19-.05.19-.06.19-.09.18-.1.16-.12.15-.13-.34 2.02-.05.04-.04.05-.06.05-.07.04-.09.06-.1.06-.12.05-.14.05-.18.05-.19.04-.23.03-.27.03-.29.01-.34.01-.39-.01-.43-.02-.35-.04-.35-.07-.34-.12-.35-.15-.34-.18-.32-.23-.3-.26-.28-.31-.25-.34-.21-.38-.19-.42-.13-.47-.09-.51-.03-.53.01-.6.09-.63.06-.31.06-.3.08-.3.08-.28.08-.26.1-.27.1-.25.1-.23.12-.24.11-.22.13-.21.14-.2.13-.19.16-.18.15-.17.16-.16.17-.15.18-.14.18-.13.19-.13.2-.11.21-.1.21-.09.22-.08.24-.08.23-.06.24-.05.26-.05.26-.04.27-.03.28-.01.29-.01.24.01.23.01.23.03.23.03.21.03.21.04.19.04.19.05.17.04.15.05.15.04.12.05.1.04.09.03.07.03.05.01z" fill="none" stroke="#fff" stroke-miterlimit="2.61" stroke-width=".22"/><path d="M95.35 44.85h-2.1l.15-.84v-.08l-.12.15-.14.14-.12.12-.14.11-.14.1-.13.08-.14.07-.14.07-.15.05-.14.04-.15.03-.15.03-.15.02-.14.01-.15.01h-.16l-.39-.03-.37-.08-.33-.13-.3-.17-.28-.22-.24-.26-.21-.28-.19-.32-.15-.34-.12-.36-.08-.37-.06-.39-.03-.39.01-.39.04-.39.07-.39.11-.44.14-.43.16-.39.19-.36.2-.34.22-.31.24-.27.25-.25.26-.22.28-.19.29-.17.29-.13.31-.1.3-.07.3-.05.31-.01.22.01.22.02.2.04.18.05.17.06.15.07.16.08.13.09.12.09.12.1.1.09.09.1.07.1.07.1.06.09.05.09.53-2.98h2.06z" fill="#fff" fill-rule="evenodd"/><path d="M95.35 44.85h-2.1l.15-.84v-.08l-.12.15-.14.14-.12.12-.14.11-.14.1-.13.08-.14.07-.14.07-.15.05-.14.04-.15.03-.15.03-.15.02-.14.01-.15.01h-.16l-.39-.03-.37-.08-.33-.13-.3-.17-.28-.22-.24-.26-.21-.28-.19-.32-.15-.34-.12-.36-.08-.37-.06-.39-.03-.39.01-.39.04-.39.07-.39.11-.44.14-.43.16-.39.19-.36.2-.34.22-.31.24-.27.25-.25.26-.22.28-.19.29-.17.29-.13.31-.1.3-.07.3-.05.31-.01.22.01.22.02.2.04.18.05.17.06.15.07.16.08.13.09.12.09.12.1.1.09.09.1.07.1.07.1.06.09.05.09.53-2.98h2.06z" fill="none" stroke="#fff" stroke-miterlimit="2.61" stroke-width=".22"/><path d="M91.91 43.01l.21-.01.2-.05.18-.05.18-.09.15-.08.16-.12.14-.13.13-.14.11-.15.11-.17.1-.17.08-.18.08-.19.06-.2.05-.2.04-.21.04-.21.02-.22v-.21l-.01-.21-.02-.2-.03-.19-.05-.18-.06-.17-.08-.15-.09-.15-.1-.12-.11-.11-.13-.09-.14-.06-.14-.04-.16-.01-.21.01-.19.03-.17.07-.18.07-.15.1-.15.12-.13.13-.13.15-.11.16-.11.18-.1.18-.08.2-.08.2-.06.21-.06.22-.04.22-.04.33.01.36.06.38.1.35.15.31.2.25.25.17z" fill="#fbb231" fill-rule="evenodd"/><path d="M45.3 43.16l-.31 1.69h-1.91l.05-.31.04-.28.03-.22.03-.11-.11.12-.12.12-.14.12-.16.1-.18.11-.19.09-.2.09-.21.08-.22.07-.22.05-.22.04-.22.03-.23.02-.21.01-.22-.03-.2-.03-.27-.06-.24-.08-.21-.1-.19-.11-.17-.12-.15-.14-.12-.15-.11-.15-.09-.16-.08-.16-.06-.17-.04-.17-.03-.17-.03-.18-.01-.16v-.17l.02-.3.05-.28.07-.26.1-.26.12-.24.14-.22.16-.21.18-.2.19-.17.21-.16.22-.14.23-.13.24-.1.25-.09.26-.06.27-.05h.01l.04-.01h.06l.08-.01.09-.02h.11l.11-.02.13-.01.13-.02.13-.01.14-.01.11-.02.13-.01h.11l.11-.01h.26l.18.01h.33l.14.01.1.01.08.01h.02l.02-.06.04-.13.04-.16.02-.15-.04-.16-.06-.16-.09-.13-.13-.12-.14-.09-.16-.07-.18-.05-.2-.01-.21-.01-.23-.01h-.23l-.25.01-.25.02-.24.02-.24.02-.24.03-.23.03-.22.04-.19.04-.19.03-.16.05-.14.05-.1.05-.09.04.54-1.83.17-.06.16-.06.19-.06.18-.04.18-.03.2-.03.19-.03.21-.02.21-.01.22-.01.23-.01h.73l.26.01.27.01.21.01.23.04.24.05.24.07.23.09.23.11.23.13.21.14.19.17.17.18.15.2.11.23.08.25.04.25v.29l-.04.31z" fill="#fff" fill-rule="evenodd"/><path d="M45.3 43.16l-.31 1.69h-1.91l.05-.31.04-.28.03-.22.03-.11-.11.12-.12.12-.14.12-.16.1-.18.11-.19.09-.2.09-.21.08-.22.07-.22.05-.22.04-.22.03-.23.02-.21.01-.22-.03-.2-.03-.27-.06-.24-.08-.21-.1-.19-.11-.17-.12-.15-.14-.12-.15-.11-.15-.09-.16-.08-.16-.06-.17-.04-.17-.03-.17-.03-.18-.01-.16v-.17l.02-.3.05-.28.07-.26.1-.26.12-.24.14-.22.16-.21.18-.2.19-.17.21-.16.22-.14.23-.13.24-.1.25-.09.26-.06.27-.05h.01l.04-.01h.06l.08-.01.09-.02h.11l.11-.02.13-.01.13-.02.13-.01.14-.01.11-.02.13-.01h.11l.11-.01h.26l.18.01h.33l.14.01.1.01.08.01h.02l.02-.06.04-.13.04-.16.02-.15-.04-.16-.06-.16-.09-.13-.13-.12-.14-.09-.16-.07-.18-.05-.2-.01-.21-.01-.23-.01h-.23l-.25.01-.25.02-.24.02-.24.02-.24.03-.23.03-.22.04-.19.04-.19.03-.16.05-.14.05-.1.05-.09.04.54-1.83.17-.06.16-.06.19-.06.18-.04.18-.03.2-.03.19-.03.21-.02.21-.01.22-.01.23-.01h.73l.26.01.27.01.21.01.23.04.24.05.24.07.23.09.23.11.23.13.21.14.19.17.17.18.15.2.11.23.08.25.04.25v.29l-.04.31z" fill="none" stroke="#fff" stroke-miterlimit="2.61" stroke-width=".22"/><path d="M43.47 41.18l-.01-.03-.03-.04-.05-.03-.07-.01-.09-.02h-.45l-.12.02-.13.01-.12.02-.11.02-.11.02-.09.02-.08.02-.06.02-.06.02-.08.03-.08.04-.1.04-.1.06-.11.05-.1.06-.1.08-.1.07-.09.09-.08.1-.08.09-.06.11-.04.12-.02.12-.01.26.04.21.07.15.1.11.12.08.13.04.12.03H41.66l.21-.03.2-.03.17-.04.15-.06.15-.06.13-.07.11-.09.1-.07.09-.09.08-.09.06-.09.05-.09.05-.09.03-.08.03-.09.06-.22.05-.25.05-.24z" fill="#ec1c2e" fill-rule="evenodd"/><path d="M29.32 44.85h-2.06l1.72-9.97h3.59l.34 5.92 2.49-5.92h3.75l-1.77 9.97h-2.06l1.31-7.45h-.09l-3.09 7.45h-2.33l-.01-.31-.06-.83-.06-1.18-.08-1.35-.08-1.36-.06-1.19-.06-.86-.01-.37H30.58z" fill="#fff" fill-rule="evenodd"/><path d="M29.32 44.85h-2.06l1.72-9.97h3.59l.34 5.92 2.49-5.92h3.75l-1.77 9.97h-2.06l1.31-7.45h-.09l-3.09 7.45h-2.33l-.01-.31-.06-.83-.06-1.18-.08-1.35-.08-1.36-.06-1.19-.06-.86-.01-.37H30.58z" fill="none" stroke="#fff" stroke-miterlimit="2.61" stroke-width=".22"/><g fill-rule="evenodd"><path d="M82.97 43.16l-.31 1.69h-1.91l.02-.31v-.48l.02-.09-.1.11-.11.12-.14.1-.15.11-.16.1-.18.09-.19.09-.19.08-.21.06-.21.06-.21.03-.22.03-.22.02-.21.01-.2-.03-.21-.03-.27-.06-.24-.08-.22-.1-.2-.11-.16-.12-.15-.14-.12-.15-.1-.15-.09-.16-.07-.16-.06-.17-.04-.17-.03-.17-.02-.18-.02-.16v-.17l.02-.3.04-.28.07-.26.1-.26.11-.24.15-.22.15-.21.18-.2.2-.17.2-.16.22-.14.24-.13.23-.1.25-.09.25-.06.26-.05h.02l.03-.01h.06l.07-.01.1-.02h.11l.11-.02.12-.01.13-.02.14-.01.13-.01.13-.02.12-.01h.11l.1-.01h.27l.18.01h.34l.15.01.12.01.06.01h.04l.01-.06.03-.13.02-.16.01-.15-.03-.16-.06-.16-.1-.13-.11-.12-.14-.09-.16-.07-.17-.05-.18-.01-.21-.01-.23-.01h-.23l-.25.01-.25.02-.24.02-.24.02-.24.03-.23.03-.21.04-.2.04-.18.03-.17.05-.14.05-.11.05-.08.04.53-1.83.17-.06.18-.06.17-.06.18-.04.19-.03.19-.03.2-.03.2-.02.22-.01.22-.01.22-.01h.71l.26.01.26.01.21.01.23.04.23.05.25.07.23.09.23.11.23.13.21.14.2.17.17.18.15.2.12.23.08.25.05.25v.29l-.03.31z" fill="#fff"/><path d="M82.66 44.9l.04-.04.31-1.69-.09-.01-.31 1.68.05-.04v.1l.03-.01.01-.03z" fill="#fff"/><path d="M80.7 44.85l.05.05h1.91v-.1h-1.91l.05.05h-.1v.05h.05z" fill="#fff"/><path d="M80.83 44l-.07-.06-.03.12-.01.21v.27l-.02.31h.1l.01-.31.02-.27-.01-.21V44l-.07-.06z" fill="#fff"/><path d="M77.87 44.97l.22.03.2.02h.21l.22-.02.22-.03.22-.04.21-.06.21-.06.19-.08.2-.08.18-.1.16-.1.16-.11.14-.11.12-.12.1-.11-.08-.06-.1.11-.1.11-.14.11-.14.1-.16.09-.19.09-.18.1-.19.07-.2.06-.21.06-.21.04-.21.03-.22.01-.21.01-.2-.02-.2-.03zM76.04 42.67v.17l.02.16.02.19.03.17.04.17.06.17.07.18.1.16.1.16.13.14.15.14.17.13.2.12.22.1.25.07.27.07.02-.09-.27-.07-.24-.08-.21-.09-.19-.11-.16-.12-.14-.13-.12-.15-.11-.14-.08-.16-.07-.16-.06-.16-.04-.16-.03-.18-.02-.17-.01-.16v-.17zM78.76 39.76l-.26.04-.26.07-.25.08-.24.11-.24.12-.23.15-.2.16-.2.18-.18.19-.16.22-.15.22-.12.25-.1.26-.06.28-.05.28-.02.3h.1l.01-.3.05-.27.07-.26.09-.25.12-.24.13-.21.16-.22.17-.19.2-.16.2-.16.21-.14.24-.12.23-.11.25-.08.24-.07.25-.04zM80.33 39.6h-.09l-.1.01-.11.01-.12.01-.13.01-.13.01-.14.01-.13.02-.12.02-.11.01-.11.01-.1.01-.07.01-.06.01-.03.01h-.02v.09h.02l.04-.01.05-.01.07-.01.1-.01.11-.01.11-.01.12-.02.13-.01.14-.02.13-.01.13-.01.12-.01.11-.01h.19z" fill="#fff"/><path d="M81.35 39.68l.05-.04h-.04l-.06-.01h-.12l-.15-.02h-.34l-.18-.01h-.18v.1h.36l.17.02h.32l.12.01h.1l.04-.03-.04.03.04.01v-.04z" fill="#fff"/><path d="M81.43 39.19h-.01l-.01.15-.02.15-.03.14-.01.05.09.02.02-.06.02-.14.02-.16.02-.15zM80.52 38.44v.01l.18.01.16.04.15.07.13.09.1.11.09.13.07.13.03.16h.09l-.03-.17-.06-.17-.11-.14-.12-.12-.14-.11-.17-.07-.18-.04-.19-.03v.01z" fill="#fff"/><path d="M77.27 38.81l.07.04.08-.04.1-.05.13-.04.16-.05.19-.04.19-.04.22-.03.22-.03.24-.04.24-.02.24-.02.25-.01H80.52v-.09l-.21-.01-.23-.01h-.23l-.25.01-.25.02-.24.02-.24.03-.24.03-.23.02-.22.04-.2.04-.18.04-.17.04-.14.05-.12.05-.09.06.08.04z" fill="#fff"/><path d="M77.83 36.94l-.03.04-.53 1.83.09.01.53-1.83-.03.04-.03-.09-.02.01-.01.03z" fill="#fff"/><path d="M81.21 36.59l-.26-.01-.26-.01h-.71l-.22.01-.22.01-.22.02-.2.01-.21.03-.19.03-.19.04-.18.04-.18.05-.17.06-.17.07.03.09.17-.07.17-.06.17-.05.18-.04.19-.04.19-.03.19-.03.2-.01.22-.02.22-.01H80.69l.26.01h.26zM83.81 39.16l.04-.31v-.29l-.05-.26-.09-.25-.12-.24-.15-.21-.19-.19-.18-.17-.22-.14-.23-.14-.24-.1-.24-.1-.25-.06-.24-.06-.23-.03-.21-.02v.09l.21.02.22.03.23.06.24.07.23.09.23.1.23.12.2.15.19.16.17.18.15.2.11.22.08.23.06.25v.29l-.04.3zM83.01 43.17l.8-4.01-.09-.01-.8 4.01z" fill="#fff"/><path d="M81.13 41.18l-.02-.04-.02-.04-.06-.02-.07-.03h-.09l-.1-.01h-.11l-.11.01-.13.01-.12.02-.12.01-.11.02-.12.02-.09.02-.1.02-.08.01-.05.01-.06.02-.08.03-.08.03-.1.04-.09.05-.11.05-.1.07-.1.07-.1.08-.08.08-.08.1-.07.11-.05.11-.05.12-.02.13-.01.26.04.21.06.15.09.11.11.08.13.04.13.03h.36l.21-.03.2-.04.17-.05.17-.06.15-.07.13-.07.12-.09.11-.09.09-.1.08-.09.07-.1.05-.09.04-.09.03-.09.03-.08.03-.22.04-.21.02-.22z" fill="#fbb231"/><path d="M96.77 43.81l.01-.18.06-.2.11-.18.13-.16.16-.13.18-.09.2-.06.21-.03.21.03.2.06.18.09.16.13.13.16.11.18.06.2.01.18h-.22l-.01-.14-.05-.16-.07-.16-.1-.13-.12-.1-.15-.08-.17-.05-.17-.02-.17.02-.17.05-.15.08-.12.1-.1.13-.07.16-.05.16-.01.14z" fill="#fff"/><path d="M97.45 43.81v-.46h.42l.09.01.08.02.06.02.06.03.03.05.03.04.02.05.01.06-.01.07-.02.05-.02.04-.01.02h-.32l.03-.01.05-.01.05-.01.03-.02.03-.02.02-.02.01-.04v-.09l-.02-.03-.02-.02-.02-.01-.04-.01-.04-.01h-.31v.3zM96.77 43.81l-.01.04.02.23.06.2.11.18.13.15.16.13.18.1.2.06.21.02.21-.02.2-.06.18-.1.16-.13.13-.15.11-.18.06-.2.02-.23-.01-.04h-.22v.04l-.01.19-.05.16-.07.15-.1.13-.12.1-.15.09-.17.05-.17.01-.17-.01-.17-.05-.15-.09-.12-.1-.1-.13-.07-.15-.05-.16-.01-.19v-.04z" fill="#fff"/><path d="M97.45 43.81v.46h.19v-.38h.19l.23.38h.15l-.23-.38h.05l.06-.01.04-.02.04-.03.02-.02h-.32l-.04.01h-.19v-.01z" fill="#fff"/></g><path d="M96.76 43.85v-.22l.06-.2.11-.18.13-.16.16-.13.18-.09.2-.06h.42l.2.06.18.09.16.13.13.16.11.18.06.2v.44l-.06.21-.11.18-.13.15-.16.13-.18.1-.2.06h-.42l-.2-.06-.18-.1-.16-.13-.06-.15-.11-.18-.06-.21v-.22m.88.42h-.19v-.92H98.2v.18H98l.23.38h-.15l-.23-.38h-.19v.38m.19-.45H98h-.41v.31h.19m0 .91h.39l.15-.09.12-.1.1-.13.07-.15V43.51l-.07-.15-.1-.13-.12-.1-.15-.13h-.68l-.15.08-.12.1-.1.13-.07.15V44.16l.07.15.1.13.12.1.15.09h.34" fill="none" stroke="#fff" stroke-miterlimit="2.61" stroke-width=".22"/><path d="M83.54 44.85h2.14l.76-4.32.03-.17.05-.16.04-.17.07-.17.07-.16.09-.17.1-.15.12-.14.14-.13.15-.12.18-.12.19-.09.22-.07.25-.06.26-.05.3-.01h.19l.34-1.95-.21.01-.21.02-.19.04-.18.05-.17.07-.16.07-.15.08-.14.1-.14.1-.13.11-.12.12-.12.12-.12.13-.11.14-.11.14-.11.15.23-1.37h-2.13z" fill="#fff" fill-rule="evenodd"/><path d="M83.54 44.85h2.14l.76-4.32.03-.17.05-.16.04-.17.07-.17.07-.16.09-.17.1-.15.12-.14.14-.13.15-.12.18-.12.19-.09.22-.07.25-.06.26-.05.3-.01h.19l.34-1.95-.21.01-.21.02-.19.04-.18.05-.17.07-.16.07-.15.08-.14.1-.14.1-.13.11-.12.12-.12.12-.12.13-.11.14-.11.14-.11.15.23-1.37h-2.13z" fill="none" stroke="#fff" stroke-miterlimit="2.61" stroke-width=".22"/><path d="M63.44 44.85h2.17l.73-4.32.03-.17.04-.16.04-.16.05-.15.06-.15.08-.14.09-.14.11-.13.12-.11.13-.12.17-.09.18-.08.22-.07.23-.06.26-.04.29-.02h.03l.03.01h.08l.03.01.03.01.03.01.01-.03.02-.09.03-.14.04-.17.06-.2.05-.21.07-.21.07-.21.06-.15.07-.14.08-.15.07-.13.07-.11.05-.09.04-.05.02-.03h-.04l-.04-.01-.05-.01h-.05l-.06-.01h-.11l-.24.01-.21.02-.2.04-.18.05-.17.06-.16.08-.15.07-.13.09-.13.1-.12.11-.12.12-.11.13-.12.13-.1.14-.11.15-.12.15.27-1.37h-2.17z" fill="#fff" fill-rule="evenodd"/><path d="M63.44 44.85h2.17l.73-4.32.03-.17.04-.16.04-.16.05-.15.06-.15.08-.14.09-.14.11-.13.12-.11.13-.12.17-.09.18-.08.22-.07.23-.06.26-.04.29-.02h.03l.03.01h.08l.03.01.03.01.03.01.01-.03.02-.09.03-.14.04-.17.06-.2.05-.21.07-.21.07-.21.06-.15.07-.14.08-.15.07-.13.07-.11.05-.09.04-.05.02-.03h-.04l-.04-.01-.05-.01h-.05l-.06-.01h-.11l-.24.01-.21.02-.2.04-.18.05-.17.06-.16.08-.15.07-.13.09-.13.1-.12.11-.12.12-.11.13-.12.13-.1.14-.11.15-.12.15.27-1.37h-2.17z" fill="none" stroke="#fff" stroke-miterlimit="2.61" stroke-width=".22"/><path d="M96.78 52.83v-.03l.06-.19.11-.18.13-.15.16-.12.18-.09.2-.05.21-.03.21.03.2.05.18.09.16.12.13.15.11.18.06.19v.03h-.22l-.05-.15-.07-.15-.1-.13-.12-.1-.15-.09-.17-.05-.17-.02-.17.02-.17.05-.15.09-.12.1-.1.13-.07.15-.05.15z" fill="#fbb231" fill-rule="evenodd"/><path d="M97.45 52.83v-.26h.51l.08.01.06.02.06.03.03.04.03.04.02.06.01.06h-.16v-.07l-.02-.03-.02-.02-.02-.01-.04-.01-.04-.01h-.31v.15zM96.76 53l.02-.17H97v.01l-.01.16z" fill="#fbb231" fill-rule="evenodd"/><path d="M97.45 53v-.17h.19v.16h.19l.07-.02.05-.01.05-.01.03-.02.03-.02.02-.02.01-.04v-.02h.16l-.01.06-.02.04-.02.04-.03.03zM98.67 53l-.01-.16v-.01h.22l.02.17z" fill="#fbb231" fill-rule="evenodd"/><path d="M96.76 53v.02l.02.22.06.21.11.18.13.16.16.13.18.09.2.06.21.02.21-.02.2-.06.18-.09.16-.13.13-.16.11-.18.06-.21.02-.22V53h-.23v.02l-.01.19-.05.16-.07.15-.1.13-.12.1-.15.09-.17.05-.17.02-.17-.02-.17-.05-.15-.09-.12-.1-.1-.13-.07-.15-.05-.16-.01-.19V53z" fill="#fbb231" fill-rule="evenodd"/><path d="M97.45 53v.44h.19v-.38h.19l.23.38h.15l-.23-.38h.05l.06-.01.04-.02.04-.03z" fill="#fbb231" fill-rule="evenodd"/><path d="M63.67 39.14l-.06-.45-.11-.41-.15-.35-.19-.3-.22-.26-.25-.21-.28-.16-.29-.14-.31-.11-.31-.08H59.97l-.55.09-.49.14-.44.19-.38.23-.34.25-.29.29-.25.31-.23.23-.17.34-.14.33-.11.32-.09.32-.06.3V41.71l.09.51.12.45.19.4.22.35.25.31.3.26.32.22.34.19.36.15.37.11.38.09H62.73l.12-.07.12-.06.31-1.86-.22.13-.21.12-.22.09-.22.08-.2.07h-2.36l-.22-.25-.16-.06-.13-.09-.14-.09-.12-.11-.08-.12-.1-.13-.09-.12-.08-.15-.11-.13v-.66h4.92v-.46l.12-.64v-.57zm-2.06.7h-2.77V39.42l.06-.15.07-.13.06-.13.09-.13.09-.11.1-.11.1-.09.11-.08.11-.07.13-.06h1.05l.11.06.12.07.1.07.09.09.07.11.08.11.05.13.06.15v.5z" fill="#fff" fill-rule="evenodd"/></symbol><symbol fill="none" viewBox="-10 -10 52 49" id="menu" xmlns="http://www.w3.org/2000/svg"><path d="M32 0H0v1.28h32V0zM32 8.96H0v1.28h32V8.96zM32 17.92H0v1.28h32v-1.28zM32 26.88H0v1.28h32v-1.28z" fill="#000"/></symbol><symbol viewBox="-70.16 -70.16 364.83 364.83" id="menuFermer" xmlns="http://www.w3.org/2000/svg"><path fill="#010002" d="M224.507 6.997L217.521 0 112.256 105.258 6.998 0 .005 6.997l105.258 105.257L.005 217.512l6.993 7L112.256 119.24l105.265 105.272 6.986-7-105.258-105.258z"/></symbol><symbol fill="none" viewBox="-10 -10 42 40" id="panier" xmlns="http://www.w3.org/2000/svg"><path d="M21.912 5.37a.365.365 0 00-.279-.128H3.596l-.664-2.899.001-.05c0-.812-.658-1.473-1.466-1.473C.657.82 0 1.48 0 2.294c0 .813.658 1.474 1.467 1.474.365 0 .7-.135.957-.359l.51 2.23a.37.37 0 00.008.054l2.2 9.582.002.006.674 2.943a.367.367 0 00.358.285H7.37c.17.84.911 1.474 1.797 1.474.885 0 1.626-.634 1.796-1.474h3.74c.17.84.912 1.474 1.797 1.474.885 0 1.626-.634 1.796-1.474h1.137a.368.368 0 00.367-.368.368.368 0 00-.367-.369h-1.137a1.839 1.839 0 00-1.796-1.474c-.885 0-1.626.634-1.796 1.474h-3.74a1.839 1.839 0 00-1.797-1.474c-.886 0-1.626.634-1.797 1.474h-.902l-.507-2.211h14.206c.18 0 .334-.133.362-.313l1.466-9.581a.369.369 0 00-.083-.296zM16.5 17.036c.606 0 1.1.496 1.1 1.106 0 .61-.494 1.105-1.1 1.105-.607 0-1.1-.496-1.1-1.105 0-.61.493-1.106 1.1-1.106zm-7.333 0c.606 0 1.1.496 1.1 1.106 0 .61-.494 1.105-1.1 1.105-.607 0-1.1-.496-1.1-1.105 0-.61.493-1.106 1.1-1.106zm-7.7-14.004a.736.736 0 01-.734-.737c0-.407.33-.737.734-.737.404 0 .733.33.733.737a.736.736 0 01-.733.737zm18.385 11.793H5.792L3.765 5.979h17.44l-1.353 8.845z" fill="#000"/></symbol><symbol fill="none" viewBox="-15.62 -15.62 72.25 81.25" id="pinterest" xmlns="http://www.w3.org/2000/svg"><path d="M20.992 0C7.288 0 0 8.782 0 18.357c0 4.44 2.481 9.979 6.453 11.735.604.272.932.156 1.066-.403.119-.425.64-2.472.894-3.438.078-.31.037-.578-.213-.869-1.318-1.525-2.365-4.303-2.365-6.91 0-6.678 5.31-13.162 14.344-13.162 7.813 0 13.279 5.075 13.279 12.335 0 8.203-4.341 13.878-9.982 13.878-3.122 0-5.447-2.45-4.71-5.481.891-3.61 2.638-7.491 2.638-10.094 0-2.335-1.319-4.266-4.013-4.266-3.178 0-5.756 3.147-5.756 7.372 0 2.684.95 4.497.95 4.497s-3.144 12.7-3.728 15.073c-.988 4.015.134 10.519.23 11.078.06.31.407.407.6.153.31-.406 4.11-5.828 5.176-9.747.388-1.428 1.978-7.219 1.978-7.219 1.047 1.89 4.07 3.475 7.288 3.475 9.576 0 16.495-8.416 16.495-18.86C40.589 7.49 32.02 0 20.992 0z" fill="#333"/></symbol><symbol fill="none" viewBox="-10 -10 45 45" id="success" xmlns="http://www.w3.org/2000/svg"><path d="M12.5 25C19.404 25 25 19.404 25 12.5S19.404 0 12.5 0 0 5.596 0 12.5 5.596 25 12.5 25z" fill="#ADD244"/><path d="M19 7.5l-8 9-5-4" stroke="#000" stroke-miterlimit="10" stroke-linecap="round" stroke-linejoin="round"/></symbol><symbol fill="none" viewBox="-15.62 -15.62 81.25 81.25" id="twitter" xmlns="http://www.w3.org/2000/svg"><g clip-path="url(#sclip0)"><path d="M50 9.497a21.372 21.372 0 01-5.906 1.619 10.193 10.193 0 004.51-5.666 20.484 20.484 0 01-6.5 2.481 10.272 10.272 0 00-7.488-3.244c-5.675 0-10.244 4.607-10.244 10.254 0 .812.069 1.593.237 2.337-8.522-.415-16.062-4.5-21.128-10.722a10.32 10.32 0 00-1.403 5.182c0 3.55 1.828 6.696 4.553 8.518-1.647-.031-3.262-.51-4.631-1.262v.112c0 4.981 3.553 9.119 8.213 10.072-.835.228-1.744.338-2.688.338-.656 0-1.319-.038-1.94-.175 1.327 4.059 5.096 7.043 9.578 7.14a20.596 20.596 0 01-12.71 4.372c-.84 0-1.647-.037-2.453-.14 4.54 2.928 9.922 4.6 15.725 4.6 18.862 0 29.175-15.626 29.175-29.17 0-.452-.016-.89-.038-1.324 2.035-1.444 3.744-3.247 5.138-5.322z" fill="#333"/></g><defs><clipPath id="sclip0"><path fill="#fff" d="M0 0h50v50H0z"/></clipPath></defs></symbol><symbol fill="none" viewBox="-14.06 -14.06 73.13 73.13" id="user" xmlns="http://www.w3.org/2000/svg"><circle cx="22.5" cy="22.5" r="22.5" fill="#2F313B"/><path fill="#DFBA1E" d="M15.65 12.386l2.745.67-4.65 19.024L11 31.409zM20.422 12h4v20h-4zM26.422 12h6v20h-6z"/></symbol><symbol fill="none" viewBox="-39.37 -39.37 204.75 157.75" id="visa" xmlns="http://www.w3.org/2000/svg"><path d="M125.4 74.2c0 2.3-1.9 4.2-4.2 4.2H4.2c-2.3 0-4.2-1.9-4.2-4.2v-70C0 1.9 1.9 0 4.2 0h117.1c2.3 0 4.2 1.9 4.2 4.2v70h-.1z" fill="#F9F9F9"/><path d="M57.7 51h-6.1l3.8-23.6h6.2L57.7 51zM46.4 27.4l-5.8 16.2-.7-3.5-2.1-10.6s-.2-2.1-2.9-2.1h-9.7l-.1.4s3 .6 6.4 2.7L36.9 51h6.4L53 27.4h-6.6zM94.6 51h5.6l-4.9-23.5h-4.9c-2.3 0-2.8 1.8-2.8 1.8L78.5 51h6.4l1.3-3.5H94l.6 3.5zm-6.7-8.4l3.2-8.8 1.8 8.8h-5zM78.9 33.1l.9-5.1s-2.7-1-5.5-1c-3 0-10.3 1.3-10.3 7.8 0 6.1 8.5 6.2 8.5 9.3 0 3.2-7.6 2.6-10.1.6l-.9 5.3s2.7 1.3 6.9 1.3 10.5-2.2 10.5-8.1c0-6.1-8.6-6.7-8.6-9.3.1-2.6 6-2.2 8.6-.8z" fill="#0066B2"/><path d="M39.9 40.1l-2.1-10.6s-.2-2.1-2.9-2.1h-9.7l-.1.4s4.6 1 9.1 4.6c4.3 3.4 5.7 7.7 5.7 7.7z" fill="#F9A533"/></symbol></svg>