<svg width="111" height="39" viewBox="0 0 111 39" fill="none" xmlns="http://www.w3.org/2000/svg">
<path d="M9.39671 23.4918H8.06385V1.49948H0V0.166608H17.4606V1.49948H9.39671V23.4918Z" fill="#2F313B"/>
<path d="M28.3385 12.0291C29.0716 12.0291 29.7603 11.8958 30.4045 11.6293C31.0487 11.3405 31.6041 10.9628 32.0706 10.4963C32.5371 10.0076 32.9036 9.45225 33.1702 8.83025C33.459 8.18603 33.6034 7.49738 33.6034 6.7643C33.6034 6.03122 33.459 5.35368 33.1702 4.73168C32.9036 4.08746 32.5371 3.5321 32.0706 3.06559C31.6041 2.57688 31.0487 2.19923 30.4045 1.93266C29.7603 1.64387 29.0716 1.49948 28.3385 1.49948H21.8075V23.4918H20.4746V0.166608H28.3385C29.2493 0.166608 30.1046 0.344324 30.9043 0.699756C31.704 1.03297 32.4038 1.49948 33.0036 2.09927C33.6034 2.69906 34.0699 3.39881 34.4031 4.19853C34.7585 4.99825 34.9362 5.85351 34.9362 6.7643C34.9362 7.67509 34.7585 8.53035 34.4031 9.33007C34.0699 10.1298 33.6034 10.8295 33.0036 11.4293C32.426 12.0069 31.7373 12.4734 30.9376 12.8288C30.1379 13.1843 29.2937 13.362 28.4052 13.362L34.9362 23.4918H33.3701L25.9394 12.0291H28.3385Z" fill="#2F313B"/>
<path d="M39.3428 23.4918H37.9099L46.6735 0.166608H48.1064L56.8366 23.4918H55.4371L53.3045 17.8271H41.4753L39.3428 23.4918ZM47.3733 2.06595L41.9752 16.4942H52.8047L47.3733 2.06595Z" fill="#2F313B"/>
<path d="M77.2082 19.9264C76.1863 21.0815 74.9756 21.9923 73.5761 22.6587C72.1766 23.3252 70.6771 23.6584 69.0777 23.6584C67.5227 23.6584 66.0565 23.3474 64.6792 22.7254C63.3241 22.1034 62.1356 21.2592 61.1138 20.1929C60.1141 19.1266 59.3144 17.8826 58.7146 16.4609C58.137 15.017 57.8483 13.4731 57.8483 11.8292C57.8483 10.2075 58.137 8.67474 58.7146 7.2308C59.3144 5.78687 60.1141 4.53175 61.1138 3.46546C62.1356 2.39916 63.3241 1.55501 64.6792 0.933007C66.0565 0.311002 67.5227 0 69.0777 0C70.6771 0 72.1766 0.333217 73.5761 0.999651C74.9756 1.66608 76.1863 2.57688 77.2082 3.73203L76.2418 4.59839C75.3088 3.57653 74.2314 2.77681 73.0096 2.19923C71.7878 1.62166 70.4772 1.33287 69.0777 1.33287C67.7004 1.33287 66.4119 1.61055 65.2124 2.16591C64.0128 2.72127 62.9687 3.47656 62.0801 4.43178C61.1915 5.36479 60.4807 6.47551 59.9475 7.76395C59.4366 9.03018 59.1811 10.3853 59.1811 11.8292C59.1811 13.2731 59.4366 14.6393 59.9475 15.9278C60.4807 17.194 61.1915 18.3047 62.0801 19.2599C62.9687 20.2152 64.0128 20.9704 65.2124 21.5258C66.4119 22.059 67.7004 22.3255 69.0777 22.3255C70.4772 22.3255 71.7878 22.0367 73.0096 21.4592C74.2314 20.8816 75.3088 20.0819 76.2418 19.06L77.2082 19.9264Z" fill="#2F313B"/>
<path d="M94.2243 1.49948H82.5284V11.1628H91.7919V12.4956H82.5284V22.1589H94.5576V23.4918H81.1956V0.166608H94.2243V1.49948Z" fill="#2F313B"/>
<path d="M110.8 17.4939C110.8 18.3602 110.6 19.1711 110.2 19.9264C109.8 20.6817 109.256 21.337 108.567 21.8923C107.879 22.4255 107.079 22.8587 106.168 23.1919C105.28 23.5029 104.325 23.6584 103.303 23.6584C102.503 23.6584 101.725 23.5584 100.97 23.3585C100.237 23.1586 99.5595 22.8809 98.9375 22.5255C98.3377 22.1478 97.8046 21.7035 97.3381 21.1926C96.8716 20.6817 96.505 20.1152 96.2385 19.4932L97.4714 18.9934C97.8935 20.0152 98.6487 20.8261 99.7373 21.4258C100.826 22.0256 102.014 22.3255 103.303 22.3255C104.147 22.3255 104.947 22.2033 105.702 21.959C106.457 21.6924 107.112 21.3481 107.668 20.926C108.223 20.4817 108.656 19.9708 108.967 19.3932C109.301 18.7934 109.467 18.1603 109.467 17.4939C109.467 16.7164 109.289 16.0388 108.934 15.4613C108.579 14.8837 108.101 14.3728 107.501 13.9285C106.924 13.462 106.246 13.0399 105.469 12.6622C104.713 12.2846 103.925 11.9069 103.103 11.5293C102.325 11.1739 101.548 10.8184 100.77 10.463C100.015 10.0854 99.3485 9.6744 98.7709 9.23011C97.327 8.1416 96.605 6.84205 96.605 5.33147C96.605 4.57618 96.7827 3.87642 97.1382 3.2322C97.4936 2.58798 97.9712 2.03262 98.571 1.56612C99.193 1.0774 99.9039 0.699756 100.704 0.433182C101.526 0.144394 102.392 0 103.303 0C103.947 0 104.58 0.0777509 105.202 0.233253C105.846 0.388753 106.446 0.610898 107.001 0.899686C107.579 1.18847 108.09 1.55501 108.534 1.9993C108.978 2.44359 109.334 2.94342 109.6 3.49878L108.401 4.06525C108.023 3.24331 107.368 2.58798 106.435 2.09927C105.502 1.58833 104.458 1.33287 103.303 1.33287C102.57 1.33287 101.87 1.44394 101.203 1.66608C100.559 1.86601 99.9927 2.1548 99.504 2.53245C99.0375 2.88788 98.6598 3.30995 98.3711 3.79867C98.0823 4.26517 97.9379 4.77611 97.9379 5.33147C97.9379 5.93126 98.0934 6.47551 98.4044 6.96423C98.7154 7.43074 99.1264 7.85281 99.6373 8.23046C100.17 8.6081 100.781 8.97464 101.47 9.33007C102.159 9.66329 102.881 9.9965 103.636 10.3297C104.48 10.7074 105.313 11.1072 106.135 11.5293C106.979 11.9292 107.734 12.3846 108.401 12.8955C110 14.2061 110.8 15.7389 110.8 17.4939Z" fill="#2F313B"/>
<path d="M35.9652 27.0461H36.5872V37.3092H41.4233V37.9312H35.9652V27.0461Z" fill="#2F313B"/>
<path d="M42.7514 37.9312V31.0425H43.3734V37.9312H42.7514ZM42.7514 27.0461H43.3734V28.4923H42.7514V27.0461Z" fill="#2F313B"/>
<path d="M48.9235 30.576C49.4108 30.576 49.8669 30.6745 50.292 30.8714C50.7274 31.0684 51.1006 31.3327 51.4116 31.6645C51.7329 31.9962 51.9869 32.3902 52.1735 32.8463C52.3601 33.3024 52.4534 33.7845 52.4534 34.2925C52.4534 34.8108 52.3601 35.298 52.1735 35.7542C51.9869 36.1999 51.7329 36.5887 51.4116 36.9204C51.1006 37.2522 50.7274 37.5165 50.292 37.7135C49.8669 37.9104 49.4108 38.0089 48.9235 38.0089C48.4363 38.0089 47.975 37.9104 47.5396 37.7135C47.1146 37.5165 46.7414 37.2522 46.42 36.9204C46.109 36.5887 45.8602 36.1999 45.6736 35.7542C45.487 35.298 45.3937 34.8108 45.3937 34.2925V27.0461H46.0157V32.1932C46.337 31.6956 46.7517 31.3016 47.2597 31.0114C47.7677 30.7211 48.3223 30.576 48.9235 30.576ZM48.9235 37.3869C49.3279 37.3869 49.7062 37.3092 50.0587 37.1537C50.4112 36.9878 50.717 36.7649 50.9762 36.485C51.2457 36.2051 51.453 35.8786 51.5982 35.5054C51.7537 35.1218 51.8314 34.7175 51.8314 34.2925C51.8314 33.8674 51.7537 33.4683 51.5982 33.0951C51.453 32.7115 51.2457 32.3798 50.9762 32.0999C50.717 31.82 50.4112 31.6023 50.0587 31.4468C49.7062 31.2809 49.3279 31.198 48.9235 31.198C48.5192 31.198 48.1409 31.2809 47.7884 31.4468C47.4359 31.6023 47.1249 31.82 46.8554 32.0999C46.5962 32.3798 46.3889 32.7115 46.2334 33.0951C46.0882 33.4683 46.0157 33.8674 46.0157 34.2925C46.0157 34.7175 46.0882 35.1218 46.2334 35.5054C46.3889 35.8786 46.5962 36.2051 46.8554 36.485C47.1249 36.7649 47.4359 36.9878 47.7884 37.1537C48.1409 37.3092 48.5192 37.3869 48.9235 37.3869Z" fill="#2F313B"/>
<path d="M54.7019 31.5556C54.961 31.255 55.2772 31.0166 55.6504 30.8403C56.0236 30.6641 56.4331 30.576 56.8789 30.576C57.4387 30.576 57.9519 30.7211 58.4184 31.0114L58.0918 31.5401C57.7393 31.312 57.335 31.198 56.8789 31.198C56.5783 31.198 56.2932 31.2498 56.0236 31.3535C55.7645 31.4571 55.5364 31.6023 55.3394 31.7889C55.1425 31.9755 54.987 32.1932 54.8729 32.442C54.7589 32.6804 54.7019 32.9396 54.7019 33.2195V37.9312H54.0799V31.0425H54.7019V31.5556Z" fill="#2F313B"/>
<path d="M64.7757 31.0425H65.3977V37.9312H64.7757V36.3917C64.4543 36.8893 64.0396 37.2833 63.5317 37.5735C63.0341 37.8638 62.4794 38.0089 61.8678 38.0089C61.3806 38.0089 60.9192 37.9104 60.4838 37.7135C60.0588 37.5165 59.6856 37.2522 59.3642 36.9204C59.0532 36.5887 58.8044 36.1999 58.6178 35.7542C58.4312 35.298 58.3379 34.8108 58.3379 34.2925C58.3379 33.7845 58.4312 33.3024 58.6178 32.8463C58.8044 32.3902 59.0532 31.9962 59.3642 31.6645C59.6856 31.3327 60.0588 31.0684 60.4838 30.8714C60.9192 30.6745 61.3806 30.576 61.8678 30.576C62.4794 30.576 63.0341 30.7211 63.5317 31.0114C64.0396 31.3016 64.4543 31.6956 64.7757 32.1932V31.0425ZM61.8678 37.3869C62.2721 37.3869 62.6505 37.3092 63.003 37.1537C63.3554 36.9878 63.6613 36.7649 63.9204 36.485C64.19 36.2051 64.3973 35.8786 64.5424 35.5054C64.6979 35.1218 64.7757 34.7175 64.7757 34.2925C64.7757 33.8674 64.6979 33.4683 64.5424 33.0951C64.3973 32.7115 64.19 32.3798 63.9204 32.0999C63.6613 31.82 63.3554 31.6023 63.003 31.4468C62.6505 31.2809 62.2721 31.198 61.8678 31.198C61.4635 31.198 61.0851 31.2809 60.7327 31.4468C60.3802 31.6023 60.0692 31.82 59.7996 32.0999C59.5405 32.3798 59.3331 32.7115 59.1776 33.0951C59.0325 33.4683 58.9599 33.8674 58.9599 34.2925C58.9599 34.7175 59.0325 35.1218 59.1776 35.5054C59.3331 35.8786 59.5405 36.2051 59.7996 36.485C60.0692 36.7649 60.3802 36.9878 60.7327 37.1537C61.0851 37.3092 61.4635 37.3869 61.8678 37.3869Z" fill="#2F313B"/>
<path d="M67.4129 37.9312V31.0425H68.0349V37.9312H67.4129ZM67.4129 27.0461H68.0349V28.4923H67.4129V27.0461Z" fill="#2F313B"/>
<path d="M70.6772 31.5556C70.9364 31.255 71.2525 31.0166 71.6257 30.8403C71.999 30.6641 72.4084 30.576 72.8542 30.576C73.414 30.576 73.9272 30.7211 74.3937 31.0114L74.0671 31.5401C73.7146 31.312 73.3103 31.198 72.8542 31.198C72.5536 31.198 72.2685 31.2498 71.9989 31.3535C71.7398 31.4571 71.5117 31.6023 71.3147 31.7889C71.1178 31.9755 70.9623 32.1932 70.8482 32.442C70.7342 32.6804 70.6772 32.9396 70.6772 33.2195V37.9312H70.0552V31.0425H70.6772V31.5556Z" fill="#2F313B"/>
<path d="M75.5524 37.9312V31.0425H76.1744V37.9312H75.5524ZM75.5524 27.0461H76.1744V28.4923H75.5524V27.0461Z" fill="#2F313B"/>
<path d="M81.3358 30.576C81.8023 30.576 82.2377 30.6745 82.642 30.8714C83.0567 31.0684 83.4144 31.3327 83.715 31.6645C84.026 31.9962 84.2696 32.3902 84.4459 32.8463C84.6221 33.3024 84.7102 33.7845 84.7102 34.2925H78.4279C78.4279 34.7175 78.5005 35.1218 78.6457 35.5054C78.8012 35.8786 79.0085 36.2051 79.2677 36.485C79.5372 36.7649 79.8482 36.9878 80.2007 37.1537C80.5531 37.3092 80.9315 37.3869 81.3358 37.3869C81.7401 37.3869 82.1237 37.304 82.4865 37.1381C82.8597 36.9619 83.1811 36.7235 83.4506 36.4228L83.9016 36.8427C83.5699 37.2055 83.1811 37.4906 82.7353 37.6979C82.2999 37.9053 81.8334 38.0089 81.3358 38.0089C80.8486 38.0089 80.3873 37.9104 79.9519 37.7135C79.5268 37.5165 79.1536 37.2522 78.8323 36.9204C78.5213 36.5887 78.2725 36.1999 78.0858 35.7542C77.8992 35.298 77.8059 34.8108 77.8059 34.2925C77.8059 33.7845 77.8992 33.3024 78.0858 32.8463C78.2725 32.3902 78.5213 31.9962 78.8323 31.6645C79.1536 31.3327 79.5268 31.0684 79.9519 30.8714C80.3873 30.6745 80.8486 30.576 81.3358 30.576ZM81.3358 31.198C80.9834 31.198 80.6464 31.2602 80.3251 31.3846C80.0141 31.509 79.7342 31.6852 79.4854 31.9133C79.2366 32.131 79.024 32.3902 78.8478 32.6908C78.6716 32.9914 78.5524 33.318 78.4902 33.6704H84.0415C83.9793 33.318 83.8653 32.9914 83.6994 32.6908C83.5336 32.3902 83.3314 32.131 83.093 31.9133C82.8546 31.6852 82.585 31.509 82.2844 31.3846C81.9837 31.2602 81.6676 31.198 81.3358 31.198Z" fill="#2F313B"/>
<rect x="7.79102" y="27.0381" width="1.56973" height="10.8758" transform="rotate(13.7363 7.79102 27.0381)" fill="#DFBA1E"/>
<rect x="10.4404" y="26.824" width="2.22145" height="11.1072" fill="#DFBA1E"/>
<rect x="20.4375" y="26.824" width="1.11072" height="11.1072" fill="#DFBA1E"/>
<rect x="25.4355" y="26.824" width="2.22145" height="11.1072" fill="#DFBA1E"/>
<rect x="30.4336" y="26.824" width="2.22145" height="11.1072" fill="#DFBA1E"/>
<rect x="13.7734" y="26.824" width="3.33217" height="11.1072" fill="#DFBA1E"/>
</svg>
