<svg width="21" height="23" viewBox="0 0 21 23" fill="none" xmlns="http://www.w3.org/2000/svg">
<path d="M20.8852 22.0654L14.7668 15.5145C16.3274 13.9032 17.2942 11.6818 17.2942 9.23197C17.2942 4.32294 13.4154 0.32959 8.64711 0.32959C3.87885 0.32959 0 4.32294 0 9.23197C0 14.141 3.87885 18.1344 8.64711 18.1344C10.7401 18.1344 12.661 17.3641 14.1582 16.086L20.2915 22.653C20.3722 22.7399 20.4801 22.7831 20.5884 22.7831C20.6913 22.7831 20.7938 22.7437 20.8737 22.6648C21.0376 22.5025 21.0425 22.2341 20.8852 22.0654ZM8.64711 17.2865C4.33303 17.2865 0.823534 13.6734 0.823534 9.23197C0.823534 4.79053 4.33303 1.17744 8.64711 1.17744C12.9612 1.17744 16.4707 4.79053 16.4707 9.23197C16.4707 13.6734 12.9608 17.2865 8.64711 17.2865Z" fill="#333333"/>
</svg>
