<svg width="25" height="28" viewBox="0 0 25 28" fill="none" xmlns="http://www.w3.org/2000/svg">
<circle cx="12.5" cy="13.5" r="12.5" fill="#DF523E"/>
<path d="M14.179 5.817V11.823C14.179 12.46 14.1475 13.0865 14.0845 13.7025C14.0215 14.3115 13.941 14.959 13.843 15.645H12.079C11.981 14.959 11.9005 14.3115 11.8375 13.7025C11.7745 13.0865 11.743 12.46 11.743 11.823V5.817H14.179ZM11.3335 19.572C11.3335 19.355 11.372 19.1485 11.449 18.9525C11.533 18.7565 11.645 18.5885 11.785 18.4485C11.932 18.3085 12.1035 18.1965 12.2995 18.1125C12.4955 18.0285 12.7055 17.9865 12.9295 17.9865C13.1465 17.9865 13.353 18.0285 13.549 18.1125C13.745 18.1965 13.913 18.3085 14.053 18.4485C14.2 18.5885 14.3155 18.7565 14.3995 18.9525C14.4835 19.1485 14.5255 19.355 14.5255 19.572C14.5255 19.796 14.4835 20.006 14.3995 20.202C14.3155 20.391 14.2 20.5555 14.053 20.6955C13.913 20.8355 13.745 20.944 13.549 21.021C13.353 21.105 13.1465 21.147 12.9295 21.147C12.7055 21.147 12.4955 21.105 12.2995 21.021C12.1035 20.944 11.932 20.8355 11.785 20.6955C11.645 20.5555 11.533 20.391 11.449 20.202C11.372 20.006 11.3335 19.796 11.3335 19.572Z" fill="black"/>
</svg>
