<svg width="150" height="29" viewBox="0 0 150 29" fill="none" xmlns="http://www.w3.org/2000/svg">
<path d="M15.0003 1.12982L19.1867 9.61328L19.303 9.84901L19.5631 9.88682L28.9255 11.2476L22.1509 17.8507L21.9626 18.0342L22.0071 18.2933L23.6063 27.6179L15.233 23.2157L15.0003 23.0934L14.7676 23.2157L6.39372 27.618L7.99294 18.2933L8.03738 18.0342L7.84913 17.8507L1.0745 11.2476L10.4369 9.88682L10.697 9.84901L10.8133 9.61331L15.0003 1.12982Z" fill="#F9D12B" stroke="black"/>
<path d="M45.0003 1.12982L49.1867 9.61328L49.303 9.84901L49.5631 9.88682L58.9255 11.2476L52.1509 17.8507L51.9626 18.0342L52.0071 18.2933L53.6063 27.6179L45.233 23.2157L45.0003 23.0934L44.7676 23.2157L36.3937 27.618L37.9929 18.2933L38.0374 18.0342L37.8491 17.8507L31.0745 11.2476L40.4369 9.88682L40.697 9.84901L40.8133 9.61331L45.0003 1.12982Z" fill="#F9D12B" stroke="black"/>
<path d="M75.0003 1.12982L79.1867 9.61328L79.303 9.84901L79.5631 9.88682L88.9255 11.2476L82.1509 17.8507L81.9626 18.0342L82.0071 18.2933L83.6063 27.6179L75.233 23.2157L75.0003 23.0934L74.7676 23.2157L66.3937 27.618L67.9929 18.2933L68.0374 18.0342L67.8491 17.8507L61.0745 11.2476L70.4369 9.88682L70.697 9.84901L70.8133 9.61331L75.0003 1.12982Z" fill="#F9D12B" stroke="black"/>
<path d="M105 1.12982L109.187 9.61328L109.303 9.84901L109.563 9.88682L118.926 11.2476L112.151 17.8507L111.963 18.0342L112.007 18.2933L113.606 27.6179L105.233 23.2157L105 23.0934L104.768 23.2157L96.3937 27.618L97.9929 18.2933L98.0374 18.0342L97.8491 17.8507L91.0745 11.2476L100.437 9.88682L100.697 9.84901L100.813 9.61331L105 1.12982Z" fill="#F9D12B" stroke="black"/>
<path d="M135 1.12982L139.187 9.61328L139.303 9.84901L139.563 9.88682L148.926 11.2476L142.151 17.8507L141.963 18.0342L142.007 18.2933L143.606 27.6179L135.233 23.2157L135 23.0934L134.768 23.2157L126.394 27.618L127.993 18.2933L128.037 18.0342L127.849 17.8507L121.075 11.2476L130.437 9.88682L130.697 9.84901L130.813 9.61331L135 1.12982Z" fill="#F4F4F4" stroke="black"/>
</svg>
