<svg width="24" height="25" viewBox="0 0 24 25" fill="none" xmlns="http://www.w3.org/2000/svg">
<path d="M24 12.112C24 5.46173 18.6166 0.0509033 12 0.0509033C5.38342 0.0509033 0 5.46173 0 12.112C0 15.6246 1.50284 18.7908 3.89498 20.9969L3.88364 21.0069L4.27287 21.3368C4.29818 21.3583 4.32567 21.3758 4.35098 21.3968C4.55782 21.5692 4.77207 21.7328 4.99025 21.8911C5.06095 21.9425 5.13164 21.9938 5.20364 22.0438C5.43665 22.2052 5.67578 22.3582 5.92015 22.5034C5.97338 22.535 6.02705 22.5657 6.08073 22.5964C6.34822 22.7494 6.62138 22.8937 6.90109 23.0262C6.9216 23.0358 6.94255 23.0446 6.96305 23.0543C7.87462 23.4801 8.84771 23.7928 9.86531 23.9775C9.89193 23.9823 9.91855 23.9871 9.9456 23.992C10.2615 24.0468 10.5809 24.0906 10.9043 24.12C10.9436 24.1235 10.9828 24.1257 11.0225 24.1292C11.3446 24.156 11.6701 24.1731 12 24.1731C12.3268 24.1731 12.6493 24.156 12.9696 24.1301C13.0102 24.1266 13.0508 24.1244 13.0913 24.1209C13.4121 24.0915 13.7289 24.049 14.0417 23.995C14.0688 23.9902 14.0963 23.9854 14.1233 23.9801C15.1257 23.7994 16.0848 23.4937 16.9846 23.0788C17.0177 23.0635 17.0513 23.049 17.0845 23.0332C17.3537 22.906 17.6169 22.7687 17.8748 22.6227C17.9389 22.5863 18.0026 22.5495 18.0663 22.5117C18.3011 22.3727 18.5319 22.2275 18.7562 22.0732C18.8369 22.0179 18.9159 21.9596 18.9958 21.9017C19.1873 21.7631 19.3754 21.6201 19.5583 21.4705C19.5988 21.4376 19.6425 21.4091 19.6822 21.3754L20.0815 21.0403L20.0697 21.0302C22.4828 18.8232 24 15.6426 24 12.112ZM0.872727 12.112C0.872727 5.94505 5.86429 0.928074 12 0.928074C18.1357 0.928074 23.1273 5.94505 23.1273 12.112C23.1273 15.4352 21.6764 18.4228 19.3793 20.4728C19.2511 20.3837 19.1219 20.3039 18.9897 20.2372L15.295 18.3807C14.9633 18.214 14.7574 17.879 14.7574 17.5066V16.2097C14.8429 16.1036 14.9332 15.9834 15.0266 15.8514C15.5049 15.1724 15.8884 14.4172 16.1681 13.6045C16.721 13.3405 17.078 12.787 17.078 12.162V10.6072C17.078 10.227 16.9392 9.85811 16.6909 9.5682V7.52133C16.7136 7.2937 16.7939 6.00908 15.8692 4.94946C15.065 4.02668 13.7633 3.55959 12 3.55959C10.2367 3.55959 8.93498 4.02668 8.13076 4.94902C7.20611 6.00865 7.2864 7.29326 7.30909 7.52089V9.56777C7.06124 9.85767 6.92204 10.2265 6.92204 10.6068V12.1616C6.92204 12.6444 7.1376 13.0949 7.50676 13.3988C7.86022 14.7904 8.58764 15.8439 8.85644 16.2009V17.4702C8.85644 17.8281 8.66226 18.157 8.34938 18.3289L4.89905 20.2206C4.78909 20.2807 4.68 20.3508 4.57091 20.4293C2.30225 18.3803 0.872727 15.411 0.872727 12.112ZM18.5276 21.1609C18.3748 21.2723 18.2195 21.3802 18.062 21.4833C17.9895 21.5306 17.9175 21.578 17.8438 21.624C17.6378 21.7521 17.4284 21.874 17.2145 21.9881C17.1674 22.0131 17.1199 22.0367 17.0723 22.0613C16.5809 22.3144 16.0726 22.5319 15.5503 22.7087C15.5319 22.7148 15.5136 22.7214 15.4948 22.7275C15.2212 22.8187 14.9441 22.8999 14.664 22.9696C14.6631 22.9696 14.6623 22.9701 14.6614 22.9701C14.3786 23.0402 14.0924 23.0986 13.8044 23.1464C13.7965 23.1477 13.7887 23.1494 13.7808 23.1508C13.5098 23.195 13.2367 23.2271 12.9626 23.2512C12.9142 23.2556 12.8657 23.2586 12.8169 23.2622C12.5459 23.2828 12.2736 23.2959 12 23.2959C11.7233 23.2959 11.4476 23.2823 11.1731 23.2617C11.1255 23.2582 11.078 23.2551 11.0308 23.2507C10.7542 23.2262 10.4788 23.1933 10.2061 23.1486C10.1939 23.1464 10.1817 23.1442 10.1695 23.142C9.59258 23.0451 9.02487 22.9025 8.472 22.7161C8.45498 22.7104 8.43753 22.7043 8.42051 22.6986C8.14604 22.6047 7.87462 22.5008 7.608 22.3859C7.60625 22.385 7.60407 22.3841 7.60233 22.3832C7.35011 22.274 7.10269 22.153 6.85833 22.0253C6.82647 22.0087 6.79418 21.9929 6.76276 21.9758C6.53978 21.8561 6.3216 21.7267 6.10647 21.5916C6.04276 21.5512 5.97949 21.5104 5.91665 21.4692C5.71855 21.339 5.52305 21.2034 5.3328 21.06C5.31316 21.0451 5.2944 21.0293 5.27476 21.0144C5.28873 21.0065 5.30269 20.9986 5.31665 20.9907L8.76698 19.0991C9.36044 18.7737 9.72916 18.1496 9.72916 17.4702L9.72873 15.8904L9.62836 15.7685C9.61876 15.7575 8.67535 14.604 8.31884 13.0422L8.27913 12.8686L8.13033 12.7716C7.92044 12.6352 7.79476 12.4072 7.79476 12.1611V10.6063C7.79476 10.4024 7.88073 10.2125 8.03782 10.0699L8.18182 9.93925V7.49633L8.17789 7.43887C8.17658 7.42835 8.04785 6.37355 8.78705 5.52664C9.41804 4.80385 10.4993 4.43676 12 4.43676C13.495 4.43676 14.5728 4.80078 15.2055 5.51831C15.9439 6.35644 15.823 7.43098 15.8221 7.43975L15.8182 9.94013L15.9622 10.0708C16.1188 10.2129 16.2052 10.4033 16.2052 10.6072V12.162C16.2052 12.4747 15.9936 12.7585 15.6899 12.8528L15.473 12.9199L15.4032 13.137C15.1457 13.9409 14.7792 14.6834 14.314 15.3439C14.1997 15.5062 14.0884 15.6501 13.9929 15.7602L13.8847 15.8843V17.5066C13.8847 18.2136 14.2756 18.8495 14.9049 19.1653L18.5996 21.0219C18.6231 21.0337 18.6463 21.046 18.6694 21.0583C18.6227 21.0938 18.5747 21.1267 18.5276 21.1609Z" fill="white"/>
</svg>
