<svg width="24" height="25" viewBox="0 0 24 25" fill="none" xmlns="http://www.w3.org/2000/svg">
<path d="M24 12.0611C24 5.41083 18.6166 0 12 0C5.38342 0 0 5.41083 0 12.0611C0 15.5737 1.50284 18.7399 3.89498 20.946L3.88364 20.956L4.27287 21.2859C4.29818 21.3074 4.32567 21.3249 4.35098 21.3459C4.55782 21.5183 4.77207 21.6819 4.99025 21.8402C5.06095 21.8915 5.13164 21.9429 5.20364 21.9929C5.43665 22.1543 5.67578 22.3073 5.92015 22.4525C5.97338 22.4841 6.02705 22.5148 6.08073 22.5455C6.34822 22.6985 6.62138 22.8428 6.90109 22.9753C6.9216 22.9849 6.94255 22.9937 6.96305 23.0034C7.87462 23.4292 8.84771 23.7419 9.86531 23.9266C9.89193 23.9314 9.91855 23.9362 9.9456 23.9411C10.2615 23.9959 10.5809 24.0397 10.9043 24.0691C10.9436 24.0726 10.9828 24.0748 11.0225 24.0783C11.3446 24.1051 11.6701 24.1222 12 24.1222C12.3268 24.1222 12.6493 24.1051 12.9696 24.0792C13.0102 24.0757 13.0508 24.0735 13.0913 24.07C13.4121 24.0406 13.7289 23.9981 14.0417 23.9441C14.0688 23.9393 14.0963 23.9345 14.1233 23.9292C15.1257 23.7485 16.0848 23.4428 16.9846 23.0279C17.0177 23.0126 17.0513 22.9981 17.0845 22.9823C17.3537 22.8551 17.6169 22.7178 17.8748 22.5718C17.9389 22.5354 18.0026 22.4986 18.0663 22.4608C18.3011 22.3218 18.5319 22.1766 18.7562 22.0222C18.8369 21.967 18.9159 21.9087 18.9958 21.8508C19.1873 21.7122 19.3754 21.5692 19.5583 21.4196C19.5988 21.3867 19.6425 21.3582 19.6822 21.3245L20.0815 20.9894L20.0697 20.9793C22.4828 18.7723 24 15.5917 24 12.0611ZM0.872727 12.0611C0.872727 5.89415 5.86429 0.877171 12 0.877171C18.1357 0.877171 23.1273 5.89415 23.1273 12.0611C23.1273 15.3843 21.6764 18.3719 19.3793 20.4218C19.2511 20.3328 19.1219 20.253 18.9897 20.1863L15.295 18.3298C14.9633 18.1631 14.7574 17.8281 14.7574 17.4557V16.1588C14.8429 16.0527 14.9332 15.9325 15.0266 15.8005C15.5049 15.1215 15.8884 14.3663 16.1681 13.5536C16.721 13.2896 17.078 12.7361 17.078 12.1111V10.5563C17.078 10.1761 16.9392 9.80721 16.6909 9.5173V7.47042C16.7136 7.2428 16.7939 5.95818 15.8692 4.89856C15.065 3.97578 13.7633 3.50868 12 3.50868C10.2367 3.50868 8.93498 3.97578 8.13076 4.89812C7.20611 5.95774 7.2864 7.24236 7.30909 7.46999V9.51686C7.06124 9.80677 6.92204 10.1756 6.92204 10.5559V12.1107C6.92204 12.5935 7.1376 13.044 7.50676 13.3479C7.86022 14.7395 8.58764 15.793 8.85644 16.15V17.4193C8.85644 17.7772 8.66226 18.1061 8.34938 18.278L4.89905 20.1697C4.78909 20.2297 4.68 20.2999 4.57091 20.3784C2.30225 18.3294 0.872727 15.3601 0.872727 12.0611ZM18.5276 21.11C18.3748 21.2214 18.2195 21.3293 18.062 21.4323C17.9895 21.4797 17.9175 21.5271 17.8438 21.5731C17.6378 21.7012 17.4284 21.8231 17.2145 21.9372C17.1674 21.9622 17.1199 21.9858 17.0723 22.0104C16.5809 22.2635 16.0726 22.481 15.5503 22.6578C15.5319 22.6639 15.5136 22.6705 15.4948 22.6766C15.2212 22.7678 14.9441 22.849 14.664 22.9187C14.6631 22.9187 14.6623 22.9192 14.6614 22.9192C14.3786 22.9893 14.0924 23.0477 13.8044 23.0955C13.7965 23.0968 13.7887 23.0985 13.7808 23.0998C13.5098 23.1441 13.2367 23.1762 12.9626 23.2003C12.9142 23.2047 12.8657 23.2077 12.8169 23.2113C12.5459 23.2319 12.2736 23.245 12 23.245C11.7233 23.245 11.4476 23.2314 11.1731 23.2108C11.1255 23.2073 11.078 23.2042 11.0308 23.1998C10.7542 23.1753 10.4788 23.1424 10.2061 23.0977C10.1939 23.0955 10.1817 23.0933 10.1695 23.0911C9.59258 22.9942 9.02487 22.8516 8.472 22.6652C8.45498 22.6595 8.43753 22.6534 8.42051 22.6477C8.14604 22.5538 7.87462 22.4499 7.608 22.335C7.60625 22.3341 7.60407 22.3332 7.60233 22.3323C7.35011 22.2231 7.10269 22.1021 6.85833 21.9744C6.82647 21.9578 6.79418 21.942 6.76276 21.9249C6.53978 21.8051 6.3216 21.6758 6.10647 21.5407C6.04276 21.5003 5.97949 21.4595 5.91665 21.4183C5.71855 21.2881 5.52305 21.1525 5.3328 21.0091C5.31316 20.9942 5.2944 20.9784 5.27476 20.9635C5.28873 20.9556 5.30269 20.9477 5.31665 20.9398L8.76698 19.0482C9.36044 18.7228 9.72916 18.0987 9.72916 17.4193L9.72873 15.8395L9.62836 15.7176C9.61876 15.7066 8.67535 14.5531 8.31884 12.9913L8.27913 12.8177L8.13033 12.7207C7.92044 12.5843 7.79476 12.3563 7.79476 12.1102V10.5554C7.79476 10.3515 7.88073 10.1616 8.03782 10.019L8.18182 9.88834V7.44542L8.17789 7.38797C8.17658 7.37744 8.04785 6.32265 8.78705 5.47574C9.41804 4.75295 10.4993 4.38585 12 4.38585C13.495 4.38585 14.5728 4.74988 15.2055 5.4674C15.9439 6.30554 15.823 7.38007 15.8221 7.38885L15.8182 9.88922L15.9622 10.0199C16.1188 10.162 16.2052 10.3524 16.2052 10.5563V12.1111C16.2052 12.4238 15.9936 12.7076 15.6899 12.8019L15.473 12.869L15.4032 13.0861C15.1457 13.89 14.7792 14.6325 14.314 15.293C14.1997 15.4553 14.0884 15.5992 13.9929 15.7092L13.8847 15.8334V17.4557C13.8847 18.1627 14.2756 18.7986 14.9049 19.1144L18.5996 20.971C18.6231 20.9828 18.6463 20.9951 18.6694 21.0074C18.6227 21.0429 18.5747 21.0758 18.5276 21.11Z" fill="black"/>
</svg>
