<svg width="24" height="25" viewBox="0 0 24 25" fill="none" xmlns="http://www.w3.org/2000/svg">
<path d="M17.1429 0.0509033C13.362 0.0509033 10.2858 3.14285 10.2858 6.94296C10.2858 8.35798 10.7135 9.67394 11.4438 10.7698L0.125678 22.1455C-0.0418927 22.314 -0.0418927 22.5862 0.125678 22.7546C0.209249 22.8386 0.318963 22.8808 0.428677 22.8808C0.53839 22.8808 0.648104 22.8386 0.731675 22.7546L2.57152 20.9054L5.69708 24.0469C5.78065 24.1309 5.89037 24.1731 6.00008 24.1731C6.10979 24.1731 6.21951 24.1309 6.30308 24.0469C6.47065 23.8785 6.47065 23.6062 6.30308 23.4378L3.17752 20.2963L4.71437 18.7516L6.98279 21.0316C7.06636 21.1156 7.17607 21.1578 7.28579 21.1578C7.3955 21.1578 7.50522 21.1156 7.58879 21.0316C7.75636 20.8632 7.75636 20.591 7.58879 20.4225L5.32037 18.1425L6.85722 16.5979L9.98278 19.7394C10.0663 19.8233 10.1761 19.8656 10.2858 19.8656C10.3955 19.8656 10.5052 19.8233 10.5888 19.7394C10.7563 19.5709 10.7563 19.2987 10.5888 19.1303L7.46322 15.9888L11.9726 11.4564C13.2309 12.9102 15.0798 13.835 17.1429 13.835C20.9237 13.835 24 10.7431 24 6.94296C24 3.14285 20.9237 0.0509033 17.1429 0.0509033ZM17.1429 12.9735C13.8343 12.9735 11.1429 10.2684 11.1429 6.94296C11.1429 3.61754 13.8343 0.91241 17.1429 0.91241C20.4514 0.91241 23.1429 3.61754 23.1429 6.94296C23.1429 10.2684 20.4514 12.9735 17.1429 12.9735Z" fill="white"/>
</svg>
