<svg width="24" height="25" viewBox="0 0 24 25" fill="none" xmlns="http://www.w3.org/2000/svg">
<path d="M17.1429 0C13.362 0 10.2858 3.09195 10.2858 6.89206C10.2858 8.30708 10.7135 9.62303 11.4438 10.7189L0.125678 22.0946C-0.0418927 22.2631 -0.0418927 22.5353 0.125678 22.7037C0.209249 22.7877 0.318963 22.8299 0.428677 22.8299C0.53839 22.8299 0.648104 22.7877 0.731675 22.7037L2.57152 20.8545L5.69708 23.996C5.78065 24.08 5.89037 24.1222 6.00008 24.1222C6.10979 24.1222 6.21951 24.08 6.30308 23.996C6.47065 23.8276 6.47065 23.5553 6.30308 23.3869L3.17752 20.2454L4.71437 18.7007L6.98279 20.9807C7.06636 21.0647 7.17607 21.1069 7.28579 21.1069C7.3955 21.1069 7.50522 21.0647 7.58879 20.9807C7.75636 20.8123 7.75636 20.54 7.58879 20.3716L5.32037 18.0916L6.85722 16.547L9.98278 19.6884C10.0663 19.7724 10.1761 19.8147 10.2858 19.8147C10.3955 19.8147 10.5052 19.7724 10.5888 19.6884C10.7563 19.52 10.7563 19.2478 10.5888 19.0794L7.46322 15.9379L11.9726 11.4055C13.2309 12.8593 15.0798 13.7841 17.1429 13.7841C20.9237 13.7841 24 10.6922 24 6.89206C24 3.09195 20.9237 0 17.1429 0ZM17.1429 12.9226C13.8343 12.9226 11.1429 10.2175 11.1429 6.89206C11.1429 3.56664 13.8343 0.861507 17.1429 0.861507C20.4514 0.861507 23.1429 3.56664 23.1429 6.89206C23.1429 10.2175 20.4514 12.9226 17.1429 12.9226Z" fill="black"/>
</svg>
