<svg width="53" height="55" viewBox="0 0 53 55" fill="none" xmlns="http://www.w3.org/2000/svg">
<path d="M52.924 24.382C53.025 24.138 53.025 23.863 52.924 23.618C52.873 23.495 52.799 23.384 52.707 23.291L40.708 11.293C40.317 10.902 39.685 10.902 39.294 11.293C38.903 11.684 38.903 12.316 39.294 12.707L49.587 23H28.001C27.448 23 27.001 23.447 27.001 24C27.001 24.553 27.448 25 28.001 25H49.587L39.294 35.293C38.903 35.684 38.903 36.316 39.294 36.707C39.489 36.902 39.745 37 40.001 37C40.257 37 40.513 36.902 40.708 36.707L52.707 24.708C52.799 24.616 52.873 24.505 52.924 24.382Z" fill="black"/>
<path d="M35.001 29C34.448 29 34.001 29.447 34.001 30V46H24.001V8C24.001 7.564 23.719 7.179 23.304 7.047L7.44198 2H34.001V18C34.001 18.553 34.448 19 35.001 19C35.554 19 36.001 18.553 36.001 18V1C36.001 0.447 35.554 0 35.001 0H1.00098C0.968976 0 0.940977 0.015 0.909976 0.018C0.853976 0.023 0.804976 0.036 0.751976 0.05C0.657977 0.075 0.573977 0.109 0.492977 0.158C0.466977 0.174 0.435977 0.174 0.410977 0.192C0.379977 0.215 0.355976 0.244 0.327976 0.269C0.310976 0.285 0.292976 0.299 0.276976 0.316C0.200976 0.398 0.138977 0.489 0.0929766 0.589C0.0839766 0.609 0.0789765 0.629 0.0709765 0.649C0.0289765 0.761 0.000976562 0.878 0.000976562 1V47C0.000976562 47.125 0.0299765 47.243 0.0729765 47.355C0.0869765 47.392 0.107977 47.423 0.125977 47.458C0.162977 47.529 0.204977 47.594 0.257977 47.654C0.286977 47.686 0.315977 47.715 0.347977 47.744C0.405977 47.795 0.470977 47.837 0.540977 47.874C0.577977 47.894 0.611976 47.915 0.651976 47.93C0.668976 47.936 0.681976 47.948 0.698977 47.954L22.699 54.954C22.797 54.984 22.899 55 23.001 55C23.211 55 23.418 54.934 23.591 54.808C23.849 54.62 24.001 54.32 24.001 54V48H35.001C35.554 48 36.001 47.553 36.001 47V30C36.001 29.447 35.553 29 35.001 29ZM22.001 52.633L2.00098 46.269V2.367L22.001 8.731V52.633Z" fill="black"/>
</svg>
