<svg viewBox="0 0 125.43 78.39" xmlns="http://www.w3.org/2000/svg"><rect fill="#f9f9f9" height="78.39" rx="4.18" width="125.43"/><path d="m77.77 61.7 1.16-.03 1.15-.08 1.12-.15 1.11-.2 1.09-.25 1.07-.3 1.05-.36 1.02-.4 1-.45.98-.5.94-.54.92-.59.88-.63.85-.67.82-.7.78-.75.75-.79.71-.82.66-.84.63-.89.59-.91.54-.95.5-.97.45-1 .4-1.02.36-1.05.31-1.07.25-1.09.19-1.11.15-1.13.08-1.14.03-1.16-.03-1.16-.08-1.14-.15-1.12-.19-1.1-.25-1.09-.31-1.06-.36-1.05-.4-1.01-.45-1-.5-.97-.54-.93-.59-.92-.63-.88-.66-.84-.71-.82-.75-.79-.78-.74-.82-.71-.85-.66-.88-.63-.92-.59-.94-.54-.98-.49-1-.46-1.02-.4-1.05-.36-1.07-.3-1.09-.25-1.11-.2-1.12-.14-1.15-.08-1.16-.04-1.16.04-1.14.08-1.13.14-1.11.2-1.08.25-1.07.3-1.04.36-1.02.4-1 .46-.96.49-.94.54-.92.59-.87.63-.86.66-.81.71-.78.74-.74.79-.71.82-.67.84-.62.88-.58.92-.54.93-.5.97-.45 1-.41 1.01-.34 1.05-.31 1.06-.25 1.09-.2 1.1-.14 1.12-.08 1.14-.03 1.16.03 1.16.08 1.14.14 1.13.2 1.11.25 1.09.31 1.07.34 1.05.41 1.02.45 1 .5.97.54.95.58.91.62.89.67.84.71.82.74.79.78.75.81.7.86.67.87.63.92.59.94.54.96.5 1 .45 1.02.4 1.04.36 1.07.3 1.08.25 1.11.2 1.13.15 1.14.08z" fill="#fbb231" fill-rule="evenodd"/><path d="m47.66 61.7 1.15-.03 1.15-.08 1.13-.15 1.1-.2 1.09-.25 1.07-.3 1.04-.36 1.02-.4 1-.45.96-.5.94-.54.91-.59.89-.63.85-.67.81-.7.78-.75.74-.79.71-.82.67-.84.62-.89.59-.91.53-.95.5-.97.45-1 .41-1.02.34-1.05.31-1.07.25-1.09.19-1.11.15-1.13.08-1.14.03-1.16-.03-1.16-.08-1.14-.15-1.12-.19-1.1-.25-1.09-.31-1.06-.34-1.05-.41-1.01-.45-1-.5-.97-.53-.93-.59-.92-.62-.88-.67-.84-.71-.82-.74-.79-.78-.74-.81-.71-.85-.66-.89-.63-.91-.59-.94-.54-.96-.49-1-.46-1.02-.4-1.04-.36-1.07-.3-1.09-.25-1.1-.2-1.13-.14-1.15-.08-1.15-.04-1.16.04-1.15.08-1.12.14-1.11.2-1.09.25-1.07.3-1.05.36-1.02.4-1 .46-.98.49-.94.54-.92.59-.88.63-.85.66-.82.71-.78.74-.75.79-.7.82-.67.84-.63.88-.59.92-.54.93-.5.97-.45 1-.41 1.01-.35 1.05-.31 1.06-.25 1.09-.19 1.1-.15 1.12-.08 1.14-.03 1.16.03 1.16.08 1.14.15 1.13.19 1.11.25 1.09.31 1.07.35 1.05.41 1.02.45 1 .5.97.54.95.59.91.63.89.67.84.7.82.75.79.78.75.82.7.85.67.88.63.92.59.94.54.98.5 1 .45 1.02.4 1.05.36 1.07.3 1.09.25 1.11.2 1.12.15 1.15.08z" fill="#ec1c2e" fill-rule="evenodd"/><path d="m60.08 25.33h11.96v-1.23h-10.93z" fill="#fbb231" fill-rule="evenodd"/><path d="m58.29 28.04h13.75v-1.22h-13.03z" fill="#fbb231" fill-rule="evenodd"/><path d="m56.95 30.75h15.09v-1.22h-14.56z" fill="#fbb231" fill-rule="evenodd"/><path d="m56.03 33.47h16.01v-1.22h-15.63z" fill="#fbb231" fill-rule="evenodd"/><path d="m56.57 46.6h15.5v-1.22h-15.88z" fill="#fbb231" fill-rule="evenodd"/><path d="m57.71 49.32h14.36v-1.22h-14.93z" fill="#fbb231" fill-rule="evenodd"/><path d="m59.32 52.03h12.75v-1.22h-13.51z" fill="#fbb231" fill-rule="evenodd"/><path d="m61.54 54.75h10.53v-1.23h-11.6z" fill="#fbb231" fill-rule="evenodd"/><path d="m55.5 36.18h16.54v-1.22h-16.31z" fill="#fbb231" fill-rule="evenodd"/><path d="m65.58 43.89h6.3v-1.22h-6.07z" fill="#fbb231" fill-rule="evenodd"/><path d="m66.08 41.18h5.8v-1.23h-5.57z" fill="#fbb231" fill-rule="evenodd"/><path d="m55.08 39.95h1.64v1.23h-1.56z" fill="#fbb231" fill-rule="evenodd"/><path d="m52.02 38.47-.11-.01-.1-.01-.1-.01-.1-.02-.09-.01-.1-.02-.1-.02-.11-.01-.1-.02h-.12l-.14-.01-.14-.01h-.16l-.18.01-.2.01-.22.02-.15.02-.14.03-.13.04-.11.04-.11.06-.1.06-.08.08-.07.06-.04.09-.04.08-.01.09v.09l.02.1.03.1.06.1.08.1.15.14.18.12.21.09.23.09.24.07.25.09.26.09.24.1.23.13.21.16.19.19.16.23.12.29.08.34.03.41-.03.48-.06.36-.09.31-.12.29-.15.25-.18.22-.19.18-.22.17-.23.15-.25.11-.25.1-.25.07-.27.07-.26.04-.25.02-.25.02-.23.01h-.33l-.3-.01h-.27l-.25-.01-.23-.01-.2-.01-.18-.02-.18-.02-.16-.01-.14-.03-.15-.03-.13-.04-.12-.03-.13-.04-.12-.05-.13-.04.34-1.68.07.02.09.02.1.03.13.03.14.03.15.03.17.04.18.03.19.03.2.03.2.02.21.02.22.01.23.01h.21l.22-.01.22-.04.18-.07.14-.08.1-.1.08-.11.06-.12.04-.12.03-.12.01-.22-.07-.19-.13-.15-.19-.13-.22-.11-.27-.12-.29-.1-.3-.12-.3-.14-.29-.16-.27-.2-.24-.23-.19-.29-.14-.34-.07-.41.01-.49.04-.29.05-.29.08-.25.09-.25.12-.22.14-.2.16-.19.19-.17.22-.14.24-.12.27-.12.31-.08.34-.07.37-.05.41-.03.45-.01h.28l.26.01.23.01h.22l.19.02.17.01.15.02.14.01.13.02.1.02.1.02.09.01.08.02h.07l.07.02.06.01z" fill="#fff" fill-rule="evenodd"/><path d="m52.02 38.47-.11-.01-.1-.01-.1-.01-.1-.02-.09-.01-.1-.02-.1-.02-.11-.01-.1-.02h-.12l-.14-.01-.14-.01h-.16l-.18.01-.2.01-.22.02-.15.02-.14.03-.13.04-.11.04-.11.06-.1.06-.08.08-.07.06-.04.09-.04.08-.01.09v.09l.02.1.03.1.06.1.08.1.15.14.18.12.21.09.23.09.24.07.25.09.26.09.24.1.23.13.21.16.19.19.16.23.12.29.08.34.03.41-.03.48-.06.36-.09.31-.12.29-.15.25-.18.22-.19.18-.22.17-.23.15-.25.11-.25.1-.25.07-.27.07-.26.04-.25.02-.25.02-.23.01h-.33l-.3-.01h-.27l-.25-.01-.23-.01-.2-.01-.18-.02-.18-.02-.16-.01-.14-.03-.15-.03-.13-.04-.12-.03-.13-.04-.12-.05-.13-.04.34-1.68.07.02.09.02.1.03.13.03.14.03.15.03.17.04.18.03.19.03.2.03.2.02.21.02.22.01.23.01h.21l.22-.01.22-.04.18-.07.14-.08.1-.1.08-.11.06-.12.04-.12.03-.12.01-.22-.07-.19-.13-.15-.19-.13-.22-.11-.27-.12-.29-.1-.3-.12-.3-.14-.29-.16-.27-.2-.24-.23-.19-.29-.14-.34-.07-.41.01-.49.04-.29.05-.29.08-.25.09-.25.12-.22.14-.2.16-.19.19-.17.22-.14.24-.12.27-.12.31-.08.34-.07.37-.05.41-.03.45-.01h.28l.26.01.23.01h.22l.19.02.17.01.15.02.14.01.13.02.1.02.1.02.09.01.08.02h.07l.07.02.06.01z" fill="none" stroke="#fff" stroke-miterlimit="2.61" stroke-width=".22"/><path d="m53.82 34.88h2.1l-.31 1.84h1.27l-.28 1.72-1.33-.04-.73 4.23-.01.15.04.13.08.1.09.08.14.06.15.04.17.03.18.02.17-.01.15-.01.14-.03.12-.03.1-.03.07-.02.04-.02h.02l-.27 1.41-.05.04-.06.03-.05.03-.05.03-.05.02-.07.02-.06.03-.07.02-.08.02-.07.02-.09.01-.09.02-.1.01-.12.02-.12.01-.13.02h-.58l-.3-.02-.26-.03-.25-.05-.2-.05-.18-.07-.14-.08-.13-.09-.1-.1-.08-.1-.05-.13-.04-.13-.02-.15-.01-.15v-.17l.03-.18.02-.19z" fill="#fff" fill-rule="evenodd"/><path d="m53.82 34.88h2.1l-.31 1.84h1.27l-.28 1.72-1.33-.04-.73 4.23-.01.15.04.13.08.1.09.08.14.06.15.04.17.03.18.02.17-.01.15-.01.14-.03.12-.03.1-.03.07-.02.04-.02h.02l-.27 1.41-.05.04-.06.03-.05.03-.05.03-.05.02-.07.02-.06.03-.07.02-.08.02-.07.02-.09.01-.09.02-.1.01-.12.02-.12.01-.13.02h-.58l-.3-.02-.26-.03-.25-.05-.2-.05-.18-.07-.14-.08-.13-.09-.1-.1-.08-.1-.05-.13-.04-.13-.02-.15-.01-.15v-.17l.03-.18.02-.19z" fill="none" stroke="#fff" stroke-miterlimit="2.61" stroke-width=".22"/><path d="m58.56 41.3-.03.12-.01.14.02.15.03.14.05.14.07.14.08.15.09.12.11.13.11.12.12.11.14.09.13.09.16.06.15.06.15.03.2.03.19.02.19.02.2.02.2.01h.2l.2-.01.21-.02.2-.03.21-.04.21-.04.2-.07.22-.08.21-.09.22-.12.22-.13-.3 1.86-.13.06-.12.07-.12.04-.11.05-.12.03-.12.04-.12.03-.13.03-.14.02-.15.01-.16.02-.17.01-.2.01h-.2l-.24.01h-.25l-.37-.01-.38-.04-.38-.05-.38-.09-.37-.11-.36-.15-.34-.19-.32-.22-.3-.26-.25-.31-.22-.35-.19-.4-.12-.45-.09-.51-.02-.56.04-.62.03-.24.04-.28.06-.3.09-.32.11-.33.14-.32.17-.33.21-.32.25-.31.29-.29.34-.25.38-.23.44-.19.49-.14.55-.09.61-.03.3.01.31.03.31.05.31.08.31.11.29.14.28.18.25.21.22.26.19.31.15.34.11.41.06.45.01.52-.05.57-.12.64-.04.46h-5.53l.35-1.49h3.32l.02-.19-.01-.18-.02-.17-.02-.15-.06-.15-.05-.13-.08-.11-.07-.1-.09-.1-.1-.07-.11-.07-.12-.06-.12-.05-.12-.03-.13-.02-.14-.02-.14.01-.14.02-.13.04-.13.04-.13.06-.11.07-.11.08-.1.1-.1.1-.09.11-.08.13-.07.13-.07.13-.05.15-.05.16-.03.16z" fill="none" stroke="#fff" stroke-miterlimit="2.61" stroke-width=".22"/><path d="m76.66 37.17-.1-.05-.1-.04-.11-.06-.11-.05-.11-.05-.13-.04-.13-.05-.14-.04-.14-.04-.15-.03-.15-.03-.16-.02-.18-.02-.17-.01h-.19-.18-.19l-.2.01-.21.02-.21.04-.21.06-.21.09-.22.1-.21.14-.2.17-.2.19-.19.25-.18.28-.17.33-.16.38-.15.43-.11.48-.05.27-.03.27-.02.27.01.25.02.26.06.24.06.23.09.23.11.21.14.19.16.18.18.16.21.13.23.12.26.1.29.06.09.03.12.02.14.01.15.02.16.02h.18.19l.19-.02.2-.02.19-.04.19-.05.19-.06.19-.09.18-.1.16-.12.15-.13-.34 2.02-.05.04-.04.05-.06.05-.07.04-.09.06-.1.06-.12.05-.14.05-.18.05-.19.04-.23.03-.27.03-.29.01-.34.01-.39-.01-.43-.02-.35-.04-.35-.07-.34-.12-.35-.15-.34-.18-.32-.23-.3-.26-.28-.31-.25-.34-.21-.38-.19-.42-.13-.47-.09-.51-.03-.53.01-.6.09-.63.06-.31.06-.3.08-.3.08-.28.08-.26.1-.27.1-.25.1-.23.12-.24.11-.22.13-.21.14-.2.13-.19.16-.18.15-.17.16-.16.17-.15.18-.14.18-.13.19-.13.2-.11.21-.1.21-.09.22-.08.24-.08.23-.06.24-.05.26-.05.26-.04.27-.03.28-.01.29-.01.24.01.23.01.23.03.23.03.21.03.21.04.19.04.19.05.17.04.15.05.15.04.12.05.1.04.09.03.07.03.05.01z" fill="#fff" fill-rule="evenodd"/><path d="m76.66 37.17-.1-.05-.1-.04-.11-.06-.11-.05-.11-.05-.13-.04-.13-.05-.14-.04-.14-.04-.15-.03-.15-.03-.16-.02-.18-.02-.17-.01h-.19-.18-.19l-.2.01-.21.02-.21.04-.21.06-.21.09-.22.1-.21.14-.2.17-.2.19-.19.25-.18.28-.17.33-.16.38-.15.43-.11.48-.05.27-.03.27-.02.27.01.25.02.26.06.24.06.23.09.23.11.21.14.19.16.18.18.16.21.13.23.12.26.1.29.06.09.03.12.02.14.01.15.02.16.02h.18.19l.19-.02.2-.02.19-.04.19-.05.19-.06.19-.09.18-.1.16-.12.15-.13-.34 2.02-.05.04-.04.05-.06.05-.07.04-.09.06-.1.06-.12.05-.14.05-.18.05-.19.04-.23.03-.27.03-.29.01-.34.01-.39-.01-.43-.02-.35-.04-.35-.07-.34-.12-.35-.15-.34-.18-.32-.23-.3-.26-.28-.31-.25-.34-.21-.38-.19-.42-.13-.47-.09-.51-.03-.53.01-.6.09-.63.06-.31.06-.3.08-.3.08-.28.08-.26.1-.27.1-.25.1-.23.12-.24.11-.22.13-.21.14-.2.13-.19.16-.18.15-.17.16-.16.17-.15.18-.14.18-.13.19-.13.2-.11.21-.1.21-.09.22-.08.24-.08.23-.06.24-.05.26-.05.26-.04.27-.03.28-.01.29-.01.24.01.23.01.23.03.23.03.21.03.21.04.19.04.19.05.17.04.15.05.15.04.12.05.1.04.09.03.07.03.05.01z" fill="none" stroke="#fff" stroke-miterlimit="2.61" stroke-width=".22"/><path d="m95.35 44.85h-2.1l.15-.84v-.08l-.12.15-.14.14-.12.12-.14.11-.14.1-.13.08-.14.07-.14.07-.15.05-.14.04-.15.03-.15.03-.15.02-.14.01-.15.01h-.16l-.39-.03-.37-.08-.33-.13-.3-.17-.28-.22-.24-.26-.21-.28-.19-.32-.15-.34-.12-.36-.08-.37-.06-.39-.03-.39.01-.39.04-.39.07-.39.11-.44.14-.43.16-.39.19-.36.2-.34.22-.31.24-.27.25-.25.26-.22.28-.19.29-.17.29-.13.31-.1.3-.07.3-.05.31-.01.22.01.22.02.2.04.18.05.17.06.15.07.16.08.13.09.12.09.12.1.1.09.09.1.07.1.07.1.06.09.05.09.53-2.98h2.06z" fill="#fff" fill-rule="evenodd"/><path d="m95.35 44.85h-2.1l.15-.84v-.08l-.12.15-.14.14-.12.12-.14.11-.14.1-.13.08-.14.07-.14.07-.15.05-.14.04-.15.03-.15.03-.15.02-.14.01-.15.01h-.16l-.39-.03-.37-.08-.33-.13-.3-.17-.28-.22-.24-.26-.21-.28-.19-.32-.15-.34-.12-.36-.08-.37-.06-.39-.03-.39.01-.39.04-.39.07-.39.11-.44.14-.43.16-.39.19-.36.2-.34.22-.31.24-.27.25-.25.26-.22.28-.19.29-.17.29-.13.31-.1.3-.07.3-.05.31-.01.22.01.22.02.2.04.18.05.17.06.15.07.16.08.13.09.12.09.12.1.1.09.09.1.07.1.07.1.06.09.05.09.53-2.98h2.06z" fill="none" stroke="#fff" stroke-miterlimit="2.61" stroke-width=".22"/><path d="m91.91 43.01.21-.01.2-.05.18-.05.18-.09.15-.08.16-.12.14-.13.13-.14.11-.15.11-.17.1-.17.08-.18.08-.19.06-.2.05-.2.04-.21.04-.21.02-.22v-.21l-.01-.21-.02-.2-.03-.19-.05-.18-.06-.17-.08-.15-.09-.15-.1-.12-.11-.11-.13-.09-.14-.06-.14-.04-.16-.01-.21.01-.19.03-.17.07-.18.07-.15.1-.15.12-.13.13-.13.15-.11.16-.11.18-.1.18-.08.2-.08.2-.06.21-.06.22-.04.22-.04.33.01.36.06.38.1.35.15.31.2.25.25.17z" fill="#fbb231" fill-rule="evenodd"/><path d="m45.3 43.16-.31 1.69h-1.91l.05-.31.04-.28.03-.22.03-.11-.11.12-.12.12-.14.12-.16.1-.18.11-.19.09-.2.09-.21.08-.22.07-.22.05-.22.04-.22.03-.23.02-.21.01-.22-.03-.2-.03-.27-.06-.24-.08-.21-.1-.19-.11-.17-.12-.15-.14-.12-.15-.11-.15-.09-.16-.08-.16-.06-.17-.04-.17-.03-.17-.03-.18-.01-.16v-.17l.02-.3.05-.28.07-.26.1-.26.12-.24.14-.22.16-.21.18-.2.19-.17.21-.16.22-.14.23-.13.24-.1.25-.09.26-.06.27-.05h.01l.04-.01h.06l.08-.01.09-.02h.11l.11-.02.13-.01.13-.02.13-.01.14-.01.11-.02.13-.01h.11l.11-.01h.08.18l.18.01h.16.17l.14.01.1.01.08.01h.02l.02-.06.04-.13.04-.16.02-.15-.04-.16-.06-.16-.09-.13-.13-.12-.14-.09-.16-.07-.18-.05-.2-.01-.21-.01-.23-.01h-.23l-.25.01-.25.02-.24.02-.24.02-.24.03-.23.03-.22.04-.19.04-.19.03-.16.05-.14.05-.1.05-.09.04.54-1.83.17-.06.16-.06.19-.06.18-.04.18-.03.2-.03.19-.03.21-.02.21-.01.22-.01.23-.01h.24.24.25l.26.01.27.01.21.01.23.04.24.05.24.07.23.09.23.11.23.13.21.14.19.17.17.18.15.2.11.23.08.25.04.25v.29l-.04.31z" fill="#fff" fill-rule="evenodd"/><path d="m45.3 43.16-.31 1.69h-1.91l.05-.31.04-.28.03-.22.03-.11-.11.12-.12.12-.14.12-.16.1-.18.11-.19.09-.2.09-.21.08-.22.07-.22.05-.22.04-.22.03-.23.02-.21.01-.22-.03-.2-.03-.27-.06-.24-.08-.21-.1-.19-.11-.17-.12-.15-.14-.12-.15-.11-.15-.09-.16-.08-.16-.06-.17-.04-.17-.03-.17-.03-.18-.01-.16v-.17l.02-.3.05-.28.07-.26.1-.26.12-.24.14-.22.16-.21.18-.2.19-.17.21-.16.22-.14.23-.13.24-.1.25-.09.26-.06.27-.05h.01l.04-.01h.06l.08-.01.09-.02h.11l.11-.02.13-.01.13-.02.13-.01.14-.01.11-.02.13-.01h.11l.11-.01h.08.18l.18.01h.16.17l.14.01.1.01.08.01h.02l.02-.06.04-.13.04-.16.02-.15-.04-.16-.06-.16-.09-.13-.13-.12-.14-.09-.16-.07-.18-.05-.2-.01-.21-.01-.23-.01h-.23l-.25.01-.25.02-.24.02-.24.02-.24.03-.23.03-.22.04-.19.04-.19.03-.16.05-.14.05-.1.05-.09.04.54-1.83.17-.06.16-.06.19-.06.18-.04.18-.03.2-.03.19-.03.21-.02.21-.01.22-.01.23-.01h.24.24.25l.26.01.27.01.21.01.23.04.24.05.24.07.23.09.23.11.23.13.21.14.19.17.17.18.15.2.11.23.08.25.04.25v.29l-.04.31z" fill="none" stroke="#fff" stroke-miterlimit="2.61" stroke-width=".22"/><path d="m43.47 41.18-.01-.03-.03-.04-.05-.03-.07-.01-.09-.02h-.1-.11-.12-.12l-.12.02-.13.01-.12.02-.11.02-.11.02-.09.02-.08.02-.06.02-.06.02-.08.03-.08.04-.1.04-.1.06-.11.05-.1.06-.1.08-.1.07-.09.09-.08.1-.08.09-.06.11-.04.12-.02.12-.01.26.04.21.07.15.1.11.12.08.13.04.12.03h.12.22l.21-.03.2-.03.17-.04.15-.06.15-.06.13-.07.11-.09.1-.07.09-.09.08-.09.06-.09.05-.09.05-.09.03-.08.03-.09.06-.22.05-.25.05-.24z" fill="#ec1c2e" fill-rule="evenodd"/><path d="m29.32 44.85h-2.06l1.72-9.97h3.59l.34 5.92 2.49-5.92h3.75l-1.77 9.97h-2.06l1.31-7.45h-.09l-3.09 7.45h-2.33l-.01-.31-.06-.83-.06-1.18-.08-1.35-.08-1.36-.06-1.19-.06-.86-.01-.37h-.02-.05-.05z" fill="#fff" fill-rule="evenodd"/><path d="m29.32 44.85h-2.06l1.72-9.97h3.59l.34 5.92 2.49-5.92h3.75l-1.77 9.97h-2.06l1.31-7.45h-.09l-3.09 7.45h-2.33l-.01-.31-.06-.83-.06-1.18-.08-1.35-.08-1.36-.06-1.19-.06-.86-.01-.37h-.02-.05-.05z" fill="none" stroke="#fff" stroke-miterlimit="2.61" stroke-width=".22"/><g fill-rule="evenodd"><path d="m82.97 43.16-.31 1.69h-1.91l.02-.31v-.27-.21l.02-.09-.1.11-.11.12-.14.1-.15.11-.16.1-.18.09-.19.09-.19.08-.21.06-.21.06-.21.03-.22.03-.22.02-.21.01-.2-.03-.21-.03-.27-.06-.24-.08-.22-.1-.2-.11-.16-.12-.15-.14-.12-.15-.1-.15-.09-.16-.07-.16-.06-.17-.04-.17-.03-.17-.02-.18-.02-.16v-.17l.02-.3.04-.28.07-.26.1-.26.11-.24.15-.22.15-.21.18-.2.2-.17.2-.16.22-.14.24-.13.23-.1.25-.09.25-.06.26-.05h.02l.03-.01h.06l.07-.01.1-.02h.11l.11-.02.12-.01.13-.02.14-.01.13-.01.13-.02.12-.01h.11l.1-.01h.09.18l.18.01h.17.17l.15.01.12.01.06.01h.04l.01-.06.03-.13.02-.16.01-.15-.03-.16-.06-.16-.1-.13-.11-.12-.14-.09-.16-.07-.17-.05-.18-.01-.21-.01-.23-.01h-.23l-.25.01-.25.02-.24.02-.24.02-.24.03-.23.03-.21.04-.2.04-.18.03-.17.05-.14.05-.11.05-.08.04.53-1.83.17-.06.18-.06.17-.06.18-.04.19-.03.19-.03.2-.03.2-.02.22-.01.22-.01.22-.01h.23.24.24l.26.01.26.01.21.01.23.04.23.05.25.07.23.09.23.11.23.13.21.14.2.17.17.18.15.2.12.23.08.25.05.25v.29l-.03.31z" fill="#fff"/><path d="m82.66 44.9.04-.04.31-1.69-.09-.01-.31 1.68.05-.04v.1l.03-.01.01-.03z" fill="#fff"/><path d="m80.7 44.85.05.05h1.91v-.1h-1.91l.05.05h-.1v.05h.05z" fill="#fff"/><path d="m80.83 44-.07-.06-.03.12-.01.21v.27l-.02.31h.1l.01-.31.02-.27-.01-.21v-.06l-.07-.06z" fill="#fff"/><path d="m77.87 44.97.22.03.2.02h.21l.22-.02.22-.03.22-.04.21-.06.21-.06.19-.08.2-.08.18-.1.16-.1.16-.11.14-.11.12-.12.1-.11-.08-.06-.1.11-.1.11-.14.11-.14.1-.16.09-.19.09-.18.1-.19.07-.2.06-.21.06-.21.04-.21.03-.22.01-.21.01-.2-.02-.2-.03z" fill="#fff"/><path d="m76.04 42.67v.17l.02.16.02.19.03.17.04.17.06.17.07.18.1.16.1.16.13.14.15.14.17.13.2.12.22.1.25.07.27.07.02-.09-.27-.07-.24-.08-.21-.09-.19-.11-.16-.12-.14-.13-.12-.15-.11-.14-.08-.16-.07-.16-.06-.16-.04-.16-.03-.18-.02-.17-.01-.16v-.17z" fill="#fff"/><path d="m78.76 39.76-.26.04-.26.07-.25.08-.24.11-.24.12-.23.15-.2.16-.2.18-.18.19-.16.22-.15.22-.12.25-.1.26-.06.28-.05.28-.02.3h.1l.01-.3.05-.27.07-.26.09-.25.12-.24.13-.21.16-.22.17-.19.2-.16.2-.16.21-.14.24-.12.23-.11.25-.08.24-.07.25-.04z" fill="#fff"/><path d="m80.33 39.6h-.09l-.1.01-.11.01-.12.01-.13.01-.13.01-.14.01-.13.02-.12.02-.11.01-.11.01-.1.01-.07.01-.06.01-.03.01h-.02v.09h.02l.04-.01.05-.01.07-.01.1-.01.11-.01.11-.01.12-.02.13-.01.14-.02.13-.01.13-.01.12-.01.11-.01h.1.09z" fill="#fff"/><path d="m81.35 39.68.05-.04h-.04l-.06-.01h-.12l-.15-.02h-.17-.17l-.18-.01h-.18v.1h.18.18l.17.02h.17.15l.12.01h.06.04l.04-.03-.04.03.04.01v-.04z" fill="#fff"/><path d="m81.43 39.19h-.01l-.01.15-.02.15-.03.14-.01.05.09.02.02-.06.02-.14.02-.16.02-.15z" fill="#fff"/><path d="m80.52 38.44v.01l.18.01.16.04.15.07.13.09.1.11.09.13.07.13.03.16h.09l-.03-.17-.06-.17-.11-.14-.12-.12-.14-.11-.17-.07-.18-.04-.19-.03v.01z" fill="#fff"/><path d="m77.27 38.81.07.04.08-.04.1-.05.13-.04.16-.05.19-.04.19-.04.22-.03.22-.03.24-.04.24-.02.24-.02.25-.01h.25.23.23.21v-.09l-.21-.01-.23-.01h-.23l-.25.01-.25.02-.24.02-.24.03-.24.03-.23.02-.22.04-.2.04-.18.04-.17.04-.14.05-.12.05-.09.06.08.04z" fill="#fff"/><path d="m77.83 36.94-.03.04-.53 1.83.09.01.53-1.83-.03.04-.03-.09-.02.01-.01.03z" fill="#fff"/><path d="m81.21 36.59-.26-.01-.26-.01h-.24-.24-.23l-.22.01-.22.01-.22.02-.2.01-.21.03-.19.03-.19.04-.18.04-.18.05-.17.06-.17.07.03.09.17-.07.17-.06.17-.05.18-.04.19-.04.19-.03.19-.03.2-.01.22-.02.22-.01h.22.23.24.24l.26.01h.26z" fill="#fff"/><path d="m83.81 39.16.04-.31v-.29l-.05-.26-.09-.25-.12-.24-.15-.21-.19-.19-.18-.17-.22-.14-.23-.14-.24-.1-.24-.1-.25-.06-.24-.06-.23-.03-.21-.02v.09l.21.02.22.03.23.06.24.07.23.09.23.1.23.12.2.15.19.16.17.18.15.2.11.22.08.23.06.25v.29l-.04.3z" fill="#fff"/><path d="m83.01 43.17.8-4.01-.09-.01-.8 4.01z" fill="#fff"/><path d="m81.13 41.18-.02-.04-.02-.04-.06-.02-.07-.03h-.09l-.1-.01h-.11l-.11.01-.13.01-.12.02-.12.01-.11.02-.12.02-.09.02-.1.02-.08.01-.05.01-.06.02-.08.03-.08.03-.1.04-.09.05-.11.05-.1.07-.1.07-.1.08-.08.08-.08.1-.07.11-.05.11-.05.12-.02.13-.01.26.04.21.06.15.09.11.11.08.13.04.13.03h.13.23l.21-.03.2-.04.17-.05.17-.06.15-.07.13-.07.12-.09.11-.09.09-.1.08-.09.07-.1.05-.09.04-.09.03-.09.03-.08.03-.22.04-.21.02-.22z" fill="#fbb231"/><path d="m96.77 43.81.01-.18.06-.2.11-.18.13-.16.16-.13.18-.09.2-.06.21-.03.21.03.2.06.18.09.16.13.13.16.11.18.06.2.01.18h-.22l-.01-.14-.05-.16-.07-.16-.1-.13-.12-.1-.15-.08-.17-.05-.17-.02-.17.02-.17.05-.15.08-.12.1-.1.13-.07.16-.05.16-.01.14z" fill="#fff"/><path d="m97.45 43.81v-.46h.42l.09.01.08.02.06.02.06.03.03.05.03.04.02.05.01.06-.01.07-.02.05-.02.04-.01.02h-.32l.03-.01.05-.01.05-.01.03-.02.03-.02.02-.02.01-.04v-.05-.04l-.02-.03-.02-.02-.02-.01-.04-.01-.04-.01h-.04-.04-.23v.3z" fill="#fff"/><path d="m96.77 43.81-.01.04.02.23.06.2.11.18.13.15.16.13.18.1.2.06.21.02.21-.02.2-.06.18-.1.16-.13.13-.15.11-.18.06-.2.02-.23-.01-.04h-.22v.04l-.01.19-.05.16-.07.15-.1.13-.12.1-.15.09-.17.05-.17.01-.17-.01-.17-.05-.15-.09-.12-.1-.1-.13-.07-.15-.05-.16-.01-.19v-.04z" fill="#fff"/><path d="m97.45 43.81v.46h.19v-.38h.19l.23.38h.15l-.23-.38h.05l.06-.01.04-.02.04-.03.02-.02h-.32l-.04.01h-.19v-.01z" fill="#fff"/></g><path d="m96.76 43.85v-.22l.06-.2.11-.18.13-.16.16-.13.18-.09.2-.06h.21.21l.2.06.18.09.16.13.13.16.11.18.06.2v.22.22l-.06.21-.11.18-.13.15-.16.13-.18.1-.2.06h-.21-.21l-.2-.06-.18-.1-.16-.13-.06-.15-.11-.18-.06-.21v-.22m.88.42h-.19v-.92h.48.08.06.06v.06.06.06h-.2l.23.38h-.15l-.23-.38h-.19v.38m.19-.45h.07.08-.41v.31h.19m0 .91h.22.17l.15-.09.12-.1.1-.13.07-.15v-.16-.19-.18-.17l-.07-.15-.1-.13-.12-.1-.15-.13h-.17-.17-.17-.17l-.15.08-.12.1-.1.13-.07.15v.17.18.19.16l.07.15.1.13.12.1.15.09h.17.17" fill="none" stroke="#fff" stroke-miterlimit="2.61" stroke-width=".22"/><path d="m83.54 44.85h2.14l.76-4.32.03-.17.05-.16.04-.17.07-.17.07-.16.09-.17.1-.15.12-.14.14-.13.15-.12.18-.12.19-.09.22-.07.25-.06.26-.05.3-.01h.11.05.03l.34-1.95-.21.01-.21.02-.19.04-.18.05-.17.07-.16.07-.15.08-.14.1-.14.1-.13.11-.12.12-.12.12-.12.13-.11.14-.11.14-.11.15.23-1.37h-2.13z" fill="#fff" fill-rule="evenodd"/><path d="m83.54 44.85h2.14l.76-4.32.03-.17.05-.16.04-.17.07-.17.07-.16.09-.17.1-.15.12-.14.14-.13.15-.12.18-.12.19-.09.22-.07.25-.06.26-.05.3-.01h.11.05.03l.34-1.95-.21.01-.21.02-.19.04-.18.05-.17.07-.16.07-.15.08-.14.1-.14.1-.13.11-.12.12-.12.12-.12.13-.11.14-.11.14-.11.15.23-1.37h-2.13z" fill="none" stroke="#fff" stroke-miterlimit="2.61" stroke-width=".22"/><path d="m63.44 44.85h2.14.03l.73-4.32.03-.17.04-.16.04-.16.05-.15.06-.15.08-.14.09-.14.11-.13.12-.11.13-.12.17-.09.18-.08.22-.07.23-.06.26-.04.29-.02h.03l.03.01h.04.04l.03.01.03.01.03.01.01-.03.02-.09.03-.14.04-.17.06-.2.05-.21.07-.21.07-.21.06-.15.07-.14.08-.15.07-.13.07-.11.05-.09.04-.05.02-.03h-.01-.03l-.04-.01-.05-.01h-.05l-.06-.01h-.06-.05l-.24.01-.21.02-.2.04-.18.05-.17.06-.16.08-.15.07-.13.09-.13.1-.12.11-.12.12-.11.13-.12.13-.1.14-.11.15-.12.15.27-1.37h-2.17z" fill="#fff" fill-rule="evenodd"/><path d="m63.44 44.85h2.14.03l.73-4.32.03-.17.04-.16.04-.16.05-.15.06-.15.08-.14.09-.14.11-.13.12-.11.13-.12.17-.09.18-.08.22-.07.23-.06.26-.04.29-.02h.03l.03.01h.04.04l.03.01.03.01.03.01.01-.03.02-.09.03-.14.04-.17.06-.2.05-.21.07-.21.07-.21.06-.15.07-.14.08-.15.07-.13.07-.11.05-.09.04-.05.02-.03h-.01-.03l-.04-.01-.05-.01h-.05l-.06-.01h-.06-.05l-.24.01-.21.02-.2.04-.18.05-.17.06-.16.08-.15.07-.13.09-.13.1-.12.11-.12.12-.11.13-.12.13-.1.14-.11.15-.12.15.27-1.37h-2.17z" fill="none" stroke="#fff" stroke-miterlimit="2.61" stroke-width=".22"/><path d="m96.78 52.83v-.03l.06-.19.11-.18.13-.15.16-.12.18-.09.2-.05.21-.03.21.03.2.05.18.09.16.12.13.15.11.18.06.19v.03h-.22l-.05-.15-.07-.15-.1-.13-.12-.1-.15-.09-.17-.05-.17-.02-.17.02-.17.05-.15.09-.12.1-.1.13-.07.15-.05.15z" fill="#fbb231" fill-rule="evenodd"/><path d="m97.45 52.83v-.26h.42.09l.08.01.06.02.06.03.03.04.03.04.02.06.01.06h-.16v-.03-.04l-.02-.03-.02-.02-.02-.01-.04-.01-.04-.01h-.04-.04-.23v.15z" fill="#fbb231" fill-rule="evenodd"/><path d="m96.76 53 .02-.17h.22v.01l-.01.16z" fill="#fbb231" fill-rule="evenodd"/><path d="m97.45 53v-.17h.19v.16h.19l.07-.02.05-.01.05-.01.03-.02.03-.02.02-.02.01-.04v-.02h.16l-.01.06-.02.04-.02.04-.03.03z" fill="#fbb231" fill-rule="evenodd"/><path d="m98.67 53-.01-.16v-.01h.22l.02.17z" fill="#fbb231" fill-rule="evenodd"/><path d="m96.76 53v.02l.02.22.06.21.11.18.13.16.16.13.18.09.2.06.21.02.21-.02.2-.06.18-.09.16-.13.13-.16.11-.18.06-.21.02-.22v-.02h-.23v.02l-.01.19-.05.16-.07.15-.1.13-.12.1-.15.09-.17.05-.17.02-.17-.02-.17-.05-.15-.09-.12-.1-.1-.13-.07-.15-.05-.16-.01-.19v-.02z" fill="#fbb231" fill-rule="evenodd"/><path d="m97.45 53v.44h.19v-.38h.19l.23.38h.15l-.23-.38h.05l.06-.01.04-.02.04-.03z" fill="#fbb231" fill-rule="evenodd"/><path d="m63.67 39.14-.06-.45-.11-.41-.15-.35-.19-.3-.22-.26-.25-.21-.28-.16-.29-.14-.31-.11-.31-.08h-.31-.31-.3-.61l-.55.09-.49.14-.44.19-.38.23-.34.25-.29.29-.25.31-.23.23-.17.34-.14.33-.11.32-.09.32-.06.3v.28.24.62.56l.09.51.12.45.19.4.22.35.25.31.3.26.32.22.34.19.36.15.37.11.38.09h.38.38 1.43.16.15.14.13.12.12.12.11.12l.12-.07.12-.06.31-1.86-.22.13-.21.12-.22.09-.22.08-.2.07h-.21-.21-.2-.21-.6-.2-.19-.19-.2-.15l-.22-.25-.16-.06-.13-.09-.14-.09-.12-.11-.08-.12-.1-.13-.09-.12-.08-.15-.11-.13v-.14-.14-.28-.1h4.92v-.46l.12-.64v-.57zm-2.06.7h-2.77v-.1-.16-.16l.06-.15.07-.13.06-.13.09-.13.09-.11.1-.11.1-.09.11-.08.11-.07.13-.06h.13.13.14.14.14.13.12.12l.11.06.12.07.1.07.09.09.07.11.08.11.05.13.06.15v.15.35z" fill="#fff" fill-rule="evenodd"/></svg>