<svg width="22" height="20" viewBox="0 0 22 20" fill="none" xmlns="http://www.w3.org/2000/svg">
<path d="M21.9116 5.37067C21.8419 5.28887 21.7403 5.24206 21.6333 5.24206H3.59635L2.93205 2.34314C2.93261 2.32673 2.9333 2.31036 2.9333 2.29382C2.9333 1.48082 2.27549 0.819702 1.46665 0.819702C0.657808 0.819616 0 1.48077 0 2.29378C0 3.10678 0.657808 3.7679 1.46665 3.7679C1.83223 3.7679 2.1667 3.6325 2.42378 3.40944L2.93476 5.63938C2.93614 5.65748 2.93837 5.67557 2.94245 5.6935L5.14245 15.2754C5.14288 15.2772 5.14348 15.2789 5.14391 15.2807L5.81826 18.2236C5.85676 18.3906 6.00492 18.5092 6.17576 18.5092H7.3702C7.54053 19.3493 8.28127 19.9834 9.16664 19.9834C10.052 19.9834 10.7927 19.3493 10.9631 18.5092H14.7035C14.8739 19.3493 15.6146 19.9834 16.5 19.9834C17.3853 19.9834 18.1261 19.3493 18.2964 18.5092H19.4333C19.6361 18.5092 19.8 18.3441 19.8 18.1407C19.8 17.9373 19.6361 17.7722 19.4333 17.7722H18.2964C18.1261 16.9322 17.3853 16.2981 16.5 16.2981C15.6146 16.2981 14.8739 16.9322 14.7035 17.7722H10.9631C10.7927 16.9322 10.052 16.2981 9.16664 16.2981C8.28127 16.2981 7.54053 16.9322 7.3702 17.7722H6.4676L5.96092 15.561H20.1666C20.3473 15.561 20.5013 15.4283 20.5288 15.2485L21.9955 5.66663C22.012 5.56043 21.9812 5.45208 21.9116 5.37067ZM16.5 17.0351C17.1064 17.0351 17.6 17.5311 17.6 18.1407C17.6 18.7502 17.1064 19.2463 16.5 19.2463C15.8935 19.2463 15.4 18.7502 15.4 18.1407C15.4 17.5311 15.8935 17.0351 16.5 17.0351ZM9.16664 17.0351C9.7731 17.0351 10.2666 17.5311 10.2666 18.1407C10.2666 18.7502 9.7731 19.2463 9.16664 19.2463C8.56018 19.2463 8.06664 18.7502 8.06664 18.1407C8.06664 17.5311 8.56018 17.0351 9.16664 17.0351ZM1.46665 3.03081C1.06223 3.03081 0.733304 2.70026 0.733304 2.29373C0.733304 1.88725 1.06219 1.55665 1.46665 1.55665C1.87107 1.55665 2.2 1.88721 2.2 2.29373C2.2 2.70026 1.87111 3.03081 1.46665 3.03081ZM19.852 14.8239H5.79205L3.7653 5.97909H21.2058L19.852 14.8239Z" fill="black"/>
</svg>
