<svg width="41" height="50" viewBox="0 0 41 50" fill="none" xmlns="http://www.w3.org/2000/svg">
<path d="M20.9916 0C7.28783 0 0 8.78165 0 18.3571C0 22.7979 2.48136 28.3357 6.45342 30.092C7.05657 30.3639 7.38471 30.2482 7.51909 29.6888C7.63785 29.2638 8.15974 27.2169 8.41288 26.2512C8.49101 25.9418 8.45038 25.673 8.20037 25.3824C6.88156 23.8573 5.83464 21.0791 5.83464 18.4727C5.83464 11.7943 11.1443 5.30962 20.179 5.30962C27.9919 5.30962 33.4578 10.3848 33.4578 17.6445C33.4578 25.848 29.1169 31.5233 23.4761 31.5233C20.354 31.5233 18.0289 29.0732 18.7665 26.0418C19.6571 22.4323 21.4041 18.5508 21.4041 15.9476C21.4041 13.6131 20.0853 11.6818 17.3914 11.6818C14.2131 11.6818 11.6349 14.8288 11.6349 19.054C11.6349 21.7385 12.5849 23.5511 12.5849 23.5511C12.5849 23.5511 9.44105 36.2516 8.85665 38.6236C7.86911 42.6394 8.99103 49.1429 9.08791 49.7023C9.14729 50.0116 9.49418 50.1085 9.68794 49.8554C9.99733 49.4491 13.7975 44.027 14.8632 40.1081C15.2507 38.6799 16.8414 32.889 16.8414 32.889C17.8883 34.7797 20.9103 36.3641 24.1292 36.3641C33.7046 36.3641 40.6237 27.9481 40.6237 17.5039C40.5893 7.49096 32.0202 0 20.9916 0Z" fill="#333333"/>
</svg>
