<svg width="126" height="79" viewBox="0 0 126 79" fill="none" xmlns="http://www.w3.org/2000/svg">
<path d="M125.4 74.2C125.4 76.5 123.5 78.4 121.2 78.4H4.2C1.9 78.4 0 76.5 0 74.2V4.2C0 1.9 1.9 0 4.2 0H121.3C123.6 0 125.5 1.9 125.5 4.2V74.2H125.4Z" fill="#F9F9F9"/>
<path d="M57.7 51H51.6L55.4 27.4H61.6L57.7 51Z" fill="#0066B2"/>
<path d="M46.4 27.4L40.6 43.6L39.9 40.1L37.8 29.5C37.8 29.5 37.6 27.4 34.9 27.4H25.2L25.1 27.8C25.1 27.8 28.1 28.4 31.5 30.5L36.9 51H43.3L53 27.4H46.4Z" fill="#0066B2"/>
<path d="M94.6 51H100.2L95.3 27.5H90.4C88.1 27.5 87.6 29.3 87.6 29.3L78.5 51H84.9L86.2 47.5H94L94.6 51ZM87.9 42.6L91.1 33.8L92.9 42.6H87.9V42.6Z" fill="#0066B2"/>
<path d="M78.9 33.1L79.8 28C79.8 28 77.1 27 74.3 27C71.3 27 64 28.3 64 34.8C64 40.9 72.5 41 72.5 44.1C72.5 47.3 64.9 46.7 62.4 44.7L61.5 50C61.5 50 64.2 51.3 68.4 51.3C72.6 51.3 78.9 49.1 78.9 43.2C78.9 37.1 70.3 36.5 70.3 33.9C70.4 31.3 76.3 31.7 78.9 33.1Z" fill="#0066B2"/>
<path d="M39.9 40.1L37.8 29.5C37.8 29.5 37.6 27.4 34.9 27.4H25.2L25.1 27.8C25.1 27.8 29.7 28.8 34.2 32.4C38.5 35.8 39.9 40.1 39.9 40.1Z" fill="#F9A533"/>
</svg>
